<?xml version="1.0" standalone="no"?>
<!DOCTYPE svg PUBLIC "-//W3C//DTD SVG 20010904//EN"
 "http://www.w3.org/TR/2001/REC-SVG-20010904/DTD/svg10.dtd">
<svg version="1.0" xmlns="http://www.w3.org/2000/svg"
 width="1920.000000pt" height="1080.000000pt" viewBox="0 0 1920.000000 1080.000000"
 preserveAspectRatio="xMidYMid meet">

<g transform="translate(0.000000,1080.000000) scale(0.100000,-0.100000)"
fill="#000000" stroke="none">
<path d="M7763 10786 c-45 -21 -53 -57 -23 -113 30 -57 67 -87 132 -108 123
-39 129 -128 17 -257 -47 -56 -59 -58 -182 -29 -45 11 -149 31 -232 46 -82 14
-186 32 -230 40 -44 9 -120 22 -170 30 -98 15 -107 17 -178 35 -82 21 -95 68
-53 187 38 104 41 135 18 156 -18 16 -42 18 -273 15 l-254 -3 -36 -28 c-20
-15 -43 -40 -50 -55 -30 -61 -94 -130 -124 -135 -76 -14 -146 -33 -140 -38 13
-14 -103 -33 -119 -20 -6 5 -15 10 -21 10 -37 4 -91 57 -147 146 -34 55 -90
102 -135 115 -28 8 -274 10 -898 5 -473 -3 -925 -6 -1005 -7 -80 0 -301 1
-492 3 -337 4 -347 3 -375 -17 -42 -30 -60 -35 -91 -22 -15 7 -79 13 -142 14
-63 2 -124 4 -134 4 -10 1 -22 -3 -27 -7 -10 -11 -30 -139 -36 -236 -6 -85 8
-117 50 -117 28 0 141 83 219 162 37 37 78 70 92 74 16 4 46 -4 87 -22 78 -35
97 -69 74 -135 -19 -53 -26 -109 -14 -109 5 0 48 20 96 44 143 73 237 77 365
18 78 -37 147 -109 168 -173 21 -67 49 -119 64 -119 19 0 42 29 64 81 11 26
25 50 31 53 6 4 11 18 11 30 0 19 -10 27 -53 42 l-52 19 -2 95 c-2 81 0 99 17
122 11 15 20 32 20 37 0 21 73 65 118 72 36 5 55 3 84 -12 41 -21 76 -61 85
-98 3 -14 21 -58 40 -98 27 -57 34 -81 31 -120 l-3 -48 -62 -3 c-71 -3 -99
-23 -67 -47 10 -8 45 -24 76 -36 91 -34 179 -125 173 -179 -1 -8 -3 -27 -3
-41 -1 -14 -13 -41 -27 -60 -13 -19 -32 -48 -41 -65 -15 -29 -15 -34 5 -79 25
-55 27 -99 7 -146 -27 -64 -96 -105 -163 -96 -84 11 -93 18 -60 44 27 21 57
73 57 98 0 29 -31 76 -63 95 -47 29 -102 26 -130 -6 -34 -40 -60 -113 -46
-131 21 -24 -12 -47 -55 -39 -55 10 -67 37 -69 153 -2 97 -2 98 -27 101 -14 1
-72 -18 -130 -44 -91 -40 -117 -47 -193 -51 -80 -5 -93 -3 -153 22 -70 30
-118 76 -151 148 -60 126 -69 142 -87 145 -28 6 -82 -53 -95 -103 -12 -47 -36
-61 -76 -43 -35 16 -48 49 -41 104 18 148 18 170 1 184 -17 14 -41 5 -145 -56
-94 -56 -111 -64 -135 -64 -42 0 -53 33 -58 170 -3 85 -9 134 -19 152 l-15 28
-52 -58 c-29 -31 -59 -64 -67 -73 -8 -9 -14 -20 -14 -26 0 -13 -86 -93 -100
-93 -6 0 -20 5 -31 10 -23 13 -18 47 18 98 12 19 23 47 24 61 0 14 9 40 19 56
10 17 29 51 43 76 13 25 48 78 76 117 34 47 51 80 49 94 -7 52 14 51 -1069 56
l-1007 4 -21 -21 -21 -21 0 -1857 c0 -1231 4 -1870 10 -1895 6 -20 19 -47 30
-60 l19 -23 43 23 c24 12 52 22 64 22 12 0 31 9 44 20 13 11 27 20 32 20 6 0
23 9 38 20 34 24 40 15 40 -60 0 -58 11 -65 77 -45 27 8 60 15 75 15 38 0 95
-55 133 -128 27 -51 37 -60 100 -92 43 -22 71 -42 73 -54 4 -17 -2 -18 -60
-14 -80 6 -121 -12 -138 -62 -22 -67 -12 -90 56 -127 34 -18 71 -34 83 -36 25
-4 68 -43 77 -69 7 -22 38 -40 57 -32 8 3 20 24 28 47 7 23 26 58 41 77 15 19
28 45 28 58 0 30 -25 78 -45 85 -8 4 -15 15 -15 25 0 15 8 19 44 19 39 1 49 6
86 47 27 30 51 46 66 46 21 0 17 7 -33 55 -63 60 -97 70 -128 35 -13 -14 -31
-20 -61 -20 -36 0 -46 5 -75 38 -39 45 -62 62 -91 67 -47 9 -117 37 -129 51
-25 31 -3 90 78 210 173 255 203 308 203 364 0 34 -2 36 -36 38 -20 2 -45 7
-54 12 -21 11 -42 -10 -96 -100 -21 -36 -71 -99 -110 -140 -40 -41 -84 -87
-98 -102 -34 -38 -46 -35 -46 11 0 28 10 54 35 92 19 30 35 60 35 67 0 8 13
30 30 48 25 29 51 90 49 118 0 5 5 13 13 17 8 6 3 8 -17 7 -37 -3 -109 -71
-139 -130 -12 -24 -29 -42 -40 -44 -26 -4 -36 -22 -36 -66 0 -21 -4 -38 -9
-38 -5 0 -11 -8 -14 -19 -4 -19 -44 -30 -80 -23 -21 4 -37 40 -37 81 0 16 13
52 29 82 21 40 30 74 35 134 3 43 11 84 16 89 6 6 10 18 10 28 0 22 12 47 92
191 33 59 65 107 70 107 5 0 6 -5 2 -12 -4 -7 -3 -8 4 -4 7 4 12 13 12 21 0
19 27 27 34 9 3 -8 12 -14 21 -14 8 0 15 -7 15 -15 0 -8 4 -15 9 -15 4 0 22
-23 40 -51 22 -36 31 -62 31 -94 0 -25 6 -50 15 -59 8 -8 15 -22 15 -30 0 -10
9 -16 25 -16 34 0 96 62 124 123 12 25 27 50 35 54 7 4 21 23 30 41 9 17 21
32 26 32 6 0 10 7 10 15 0 8 7 15 15 15 26 0 19 -72 -8 -99 -13 -12 -34 -44
-47 -71 -13 -28 -27 -50 -32 -50 -4 0 -8 -16 -8 -35 0 -33 2 -35 26 -29 27 7
31 10 181 149 57 52 110 95 118 95 9 0 18 7 21 15 4 8 12 15 20 15 20 0 85 72
79 88 -10 26 25 46 84 48 31 1 56 3 56 4 0 2 11 4 25 5 31 3 93 27 101 39 9
12 210 -40 285 -74 59 -26 65 -32 59 -52 -4 -13 -14 -29 -23 -35 -14 -12 -13
-13 6 -13 12 0 22 -6 22 -14 0 -7 7 -19 15 -26 9 -7 13 -15 10 -18 -3 -3 59
-37 137 -76 78 -39 143 -76 145 -83 6 -16 -25 -21 -67 -10 -19 5 -51 12 -70
17 -92 21 -120 29 -185 54 -80 30 -164 37 -190 16 -15 -12 -14 -15 9 -36 13
-13 28 -34 31 -46 12 -37 41 -58 80 -58 19 0 35 -5 35 -10 0 -6 6 -10 13 -8 6
1 29 -4 50 -11 32 -11 37 -16 31 -34 -3 -12 -15 -30 -25 -40 -10 -10 -26 -31
-34 -47 -9 -17 -19 -29 -23 -29 -16 3 -72 -14 -72 -22 0 -5 -18 -9 -40 -9
l-40 0 0 45 c0 38 -3 45 -20 45 -13 0 -20 7 -20 19 0 11 -3 22 -8 24 -14 9
-62 -5 -62 -18 0 -8 -8 -16 -18 -19 -29 -9 -64 -62 -49 -73 15 -12 79 -30 132
-38 59 -10 129 -87 146 -162 21 -93 51 -82 119 46 22 42 51 94 64 116 55 94
142 110 203 38 19 -22 33 -49 33 -65 0 -35 13 -42 35 -18 10 11 34 24 53 30
49 13 118 -17 128 -55 8 -33 -3 -57 -72 -161 -52 -78 -82 -140 -72 -150 3 -2
31 2 64 11 108 28 186 8 192 -49 4 -33 -7 -42 -103 -91 -38 -20 -97 -51 -130
-70 -65 -37 -110 -43 -140 -21 -26 19 -48 6 -73 -44 l-19 -40 36 0 c35 0 148
-51 163 -74 14 -20 -4 -70 -41 -116 -20 -25 -40 -51 -46 -59 -85 -119 -171
-105 -213 34 -11 37 -29 35 -74 -5 -60 -56 -135 -49 -185 16 -25 34 -26 34
-92 28 -69 -6 -65 -7 -145 50 -22 15 -42 18 -106 17 -44 -1 -89 3 -101 9 -27
15 -48 -2 -30 -24 6 -7 14 -38 18 -67 3 -30 15 -66 25 -82 25 -35 20 -62 -12
-63 -67 -2 -115 -40 -118 -94 -2 -19 -8 -51 -14 -70 -6 -19 -12 -41 -14 -48
-2 -8 -17 -19 -33 -25 -26 -10 -28 -14 -23 -51 2 -23 9 -50 15 -61 10 -21 65
-71 97 -90 10 -5 65 -37 121 -69 57 -33 131 -77 163 -98 33 -21 65 -37 71 -34
26 9 65 -38 75 -89 5 -27 16 -75 25 -105 8 -30 18 -95 21 -145 5 -76 3 -98
-14 -144 -37 -95 -98 -162 -159 -174 -29 -6 -41 0 -106 51 -85 67 -134 102
-141 102 -5 0 -67 55 -142 127 -19 18 -34 37 -34 42 0 5 -40 44 -90 87 -49 43
-102 96 -117 118 -28 42 -54 71 -85 95 -15 11 -31 10 -100 -6 -82 -18 -83 -19
-163 -98 -60 -60 -90 -99 -118 -157 l-39 -78 21 -26 c12 -15 21 -23 21 -18 1
5 6 0 13 -12 7 -11 20 -29 29 -40 10 -10 37 -41 60 -67 23 -27 56 -56 72 -64
35 -18 48 -33 76 -84 13 -25 31 -41 62 -53 30 -11 50 -28 68 -56 13 -22 28
-40 32 -40 4 0 8 -5 8 -11 0 -6 7 -17 15 -25 11 -11 15 -38 15 -100 0 -55 4
-84 11 -84 7 0 9 -9 6 -21 -5 -20 -4 -22 68 -49 11 -4 36 -15 57 -24 20 -9 44
-16 55 -17 32 -1 106 -43 109 -62 1 -10 -6 -38 -17 -61 l-19 -44 28 -53 c15
-30 35 -65 44 -80 37 -53 34 -80 -15 -134 l-44 -50 -5 -105 c-5 -108 -35 -210
-63 -210 -15 0 -65 42 -177 150 -80 76 -93 85 -129 86 -26 1 -52 -7 -72 -20
-29 -20 -33 -28 -38 -86 -16 -168 -33 -232 -63 -243 -19 -7 -52 -121 -61 -207
-4 -38 -15 -79 -27 -98 -20 -33 -21 -33 -92 -31 -73 3 -98 -3 -95 -24 5 -38
-5 -61 -33 -88 -40 -36 -87 -61 -100 -53 -17 11 0 95 27 136 29 44 31 63 9
118 -18 44 -39 60 -78 60 -18 0 -30 9 -41 30 -17 33 -20 77 -5 82 13 4 41 171
30 182 -17 18 -38 -4 -49 -52 -12 -46 -13 -63 -9 -157 0 -22 -7 -85 -16 -140
-13 -78 -16 -145 -13 -305 2 -113 8 -221 12 -240 15 -66 82 -130 136 -130 18
0 124 53 139 69 3 3 25 20 50 36 25 16 47 33 50 36 3 3 16 9 30 13 75 22 144
18 134 -7 -3 -8 2 -20 11 -27 12 -10 14 -25 9 -79 -9 -88 -33 -120 -91 -120
-72 -1 -89 -16 -136 -115 -24 -50 -47 -102 -51 -116 -3 -14 -17 -37 -30 -52
-20 -23 -30 -26 -64 -23 -49 5 -96 25 -139 60 l-32 26 -22 -22 c-21 -21 -22
-26 -16 -168 4 -80 2 -186 -3 -236 -14 -134 -12 -1193 3 -1427 14 -213 22
-238 73 -238 40 0 130 -46 152 -78 21 -29 24 -30 124 -34 96 -4 108 -7 177
-43 60 -31 85 -39 138 -41 55 -2 69 -6 94 -30 23 -22 29 -36 29 -70 0 -62 7
-75 35 -64 12 5 34 20 48 34 34 34 71 33 140 -4 31 -16 67 -30 79 -30 13 0 57
-9 98 -20 66 -18 110 -21 360 -22 157 -1 328 0 380 1 52 1 223 -6 380 -15 186
-10 375 -15 545 -12 237 4 264 6 305 25 68 32 80 44 84 91 4 45 46 112 71 112
8 0 18 6 22 14 5 8 38 18 83 24 89 11 117 1 148 -52 11 -19 33 -43 49 -53 15
-9 31 -22 35 -28 11 -15 9 -55 -2 -55 -7 0 -7 -6 0 -19 19 -36 157 -63 210
-41 36 15 45 43 36 107 -8 58 -25 78 -80 92 -51 13 -63 33 -69 119 -7 89 -23
105 -102 99 -33 -2 -91 -14 -130 -26 -101 -32 -175 -42 -182 -24 -10 26 36
204 70 269 8 16 31 46 51 68 l37 39 102 -8 c75 -5 107 -11 122 -24 11 -10 40
-19 65 -20 57 -4 66 -9 88 -52 11 -19 35 -42 56 -53 26 -13 43 -30 53 -55 33
-82 44 -101 62 -101 22 0 46 60 56 136 6 45 2 60 -25 119 -31 66 -32 73 -37
239 -5 144 -3 180 11 231 10 32 25 65 34 73 10 7 12 11 5 8 -7 -4 -13 14 -18
54 -4 33 -11 60 -16 60 -5 0 -9 7 -9 15 0 8 5 15 10 15 6 0 10 -4 10 -10 0 -5
7 -10 15 -10 14 0 20 -51 18 -137 0 -6 8 -10 18 -8 12 2 21 -4 25 -18 l7 -22
8 24 c5 12 6 27 3 32 -3 5 0 8 7 7 19 -5 35 78 39 203 0 14 19 16 141 18 l140
1 117 -46 c64 -26 142 -55 172 -64 30 -10 109 -38 175 -63 66 -25 163 -59 215
-75 52 -17 160 -54 240 -82 80 -29 249 -87 375 -130 127 -43 298 -104 380
-135 277 -106 346 -131 485 -172 69 -21 457 -157 529 -186 80 -32 106 -61 115
-126 4 -30 24 -87 47 -132 21 -43 39 -87 39 -98 0 -11 5 -23 10 -26 6 -3 10
-19 10 -35 0 -49 40 -68 166 -79 196 -18 840 -34 1029 -26 99 4 326 7 505 5
244 -1 332 1 353 11 15 7 27 16 27 20 0 4 23 33 51 63 48 53 52 60 56 121 4
44 1 76 -9 102 -27 68 -8 77 97 44 82 -25 129 -49 145 -74 11 -19 9 -23 -16
-43 -111 -88 -137 -185 -59 -224 46 -23 209 -26 241 -5 41 27 59 76 47 129
-17 74 7 82 132 42 76 -24 115 -48 115 -71 0 -6 -13 -24 -30 -40 -56 -54 -31
-75 89 -75 96 0 122 9 178 60 23 22 51 40 61 40 20 0 62 -39 62 -58 0 -34 110
-54 159 -29 34 17 36 30 6 65 -15 18 -30 52 -34 79 -12 72 -26 98 -67 130 -60
45 -125 105 -135 125 -13 24 9 58 37 58 16 0 359 -157 436 -200 10 -6 28 -10
42 -10 13 0 70 -24 127 -54 88 -45 118 -55 194 -66 50 -6 110 -18 135 -25 78
-23 274 -65 300 -65 14 -1 57 -10 95 -22 87 -27 209 -31 245 -7 18 11 60 18
145 21 249 12 420 108 517 291 23 43 36 57 53 57 30 0 41 -51 20 -93 -8 -17
-15 -38 -15 -49 0 -10 -4 -26 -9 -36 -23 -41 -71 -151 -71 -161 0 -7 17 -19
38 -28 54 -23 693 -35 1517 -28 363 3 1175 5 1805 6 679 0 1188 4 1250 10 58
5 184 12 280 15 275 8 322 11 370 30 25 9 69 19 98 21 45 4 56 10 77 37 14 18
25 38 25 44 0 22 20 12 26 -13 4 -17 1 -32 -10 -44 -15 -16 -15 -22 -4 -41 14
-23 68 -50 102 -50 11 0 49 13 83 29 l61 29 7 66 c8 76 3 107 -28 148 -20 27
-22 42 -23 160 0 99 3 131 13 135 7 3 13 11 13 19 0 7 12 25 26 39 14 14 30
41 35 60 9 31 7 37 -21 63 -16 16 -26 33 -22 37 4 4 -4 5 -16 2 -24 -6 -24 -5
-17 62 6 64 5 70 -16 85 -13 9 -31 16 -41 16 -10 0 -18 3 -18 8 0 4 -4 23 -9
43 -9 39 -8 40 57 39 40 -1 55 30 54 111 -1 70 -32 143 -105 247 -30 42 -60
94 -66 114 -7 21 -16 38 -20 38 -3 0 -8 11 -9 24 -3 46 -49 131 -104 196 -72
84 -88 124 -88 217 0 59 -5 84 -25 123 -43 86 -26 182 48 258 35 35 46 42 69
37 43 -10 108 -44 108 -58 0 -9 3 -8 9 1 4 8 12 12 17 10 13 -5 17 53 5 65 -6
6 -11 21 -11 34 0 13 -6 24 -12 25 -33 4 -74 8 -88 9 -25 3 -38 18 -45 57 -3
20 -31 86 -61 147 -41 81 -54 117 -50 137 3 15 0 28 -6 30 -14 5 6 44 41 78
34 33 64 91 60 115 -7 36 -80 35 -189 -3 -136 -48 -143 -48 -190 -6 -34 31
-45 35 -74 30 -18 -4 -41 -15 -50 -24 -9 -10 -38 -29 -64 -41 -32 -15 -54 -34
-64 -54 -14 -27 -31 -167 -30 -244 0 -20 -5 -23 -44 -23 -30 0 -46 -5 -50 -14
-3 -8 -30 -20 -59 -27 -46 -10 -57 -10 -78 4 -26 17 -82 98 -130 187 l-28 52
-62 -5 c-34 -2 -87 -10 -118 -17 -52 -13 -58 -12 -112 13 -52 23 -57 29 -57
57 0 17 5 40 10 51 16 29 15 108 -2 125 -11 11 -20 12 -46 3 -51 -18 -65 -61
-38 -114 11 -21 12 -31 3 -40 -15 -16 -34 -4 -72 47 -77 104 -160 219 -202
283 -60 92 -107 160 -148 215 -19 25 -34 49 -34 53 -1 5 -14 25 -29 45 -16 20
-46 60 -66 88 -21 29 -56 61 -77 73 -44 25 -56 51 -37 83 47 81 53 88 81 88
42 0 33 35 -9 36 -17 0 -45 6 -63 13 -69 29 -172 -7 -222 -78 -18 -25 -56 -75
-85 -111 -28 -36 -62 -85 -74 -110 -12 -25 -33 -59 -46 -77 -27 -36 -31 -79
-9 -109 18 -27 117 -74 155 -74 33 0 57 -21 76 -67 19 -44 72 -103 94 -103 25
0 127 -106 155 -161 33 -65 39 -106 21 -158 -9 -24 -16 -76 -16 -117 0 -54
-10 -112 -40 -221 -47 -176 -64 -265 -89 -473 -20 -169 -55 -311 -81 -330 -4
-3 -23 -30 -43 -61 -20 -31 -75 -91 -124 -135 -48 -43 -90 -82 -93 -86 -4 -4
-40 -43 -81 -85 -128 -132 -349 -376 -349 -386 0 -5 -35 -50 -78 -101 -43 -50
-91 -110 -107 -134 -78 -114 -96 -137 -126 -168 -18 -19 -43 -34 -55 -34 -29
0 -54 35 -54 77 0 17 -7 39 -16 48 -15 14 -14 17 5 34 12 10 21 27 21 38 0 21
-50 69 -85 83 -11 4 -27 20 -35 35 -12 23 -12 38 3 123 9 53 22 115 28 136 10
38 71 108 96 113 6 2 19 -23 28 -55 9 -31 18 -65 21 -75 3 -9 9 -15 14 -12 5
3 27 -3 48 -14 22 -11 42 -18 45 -15 3 3 19 6 36 6 19 1 31 6 31 15 0 7 5 13
10 13 6 0 10 30 10 69 0 79 -21 128 -104 245 -59 84 -76 123 -76 173 0 74 157
516 234 658 33 61 45 96 50 145 9 87 22 133 55 205 16 33 36 91 45 129 9 38
26 87 38 110 12 22 27 64 34 91 7 28 26 88 43 135 17 47 30 93 31 102 0 34 88
285 123 354 19 38 45 99 56 135 20 60 124 277 140 289 18 15 40 72 46 121 6
44 18 73 56 130 27 41 49 84 49 96 0 12 5 25 10 28 6 3 8 17 6 30 -2 13 -2 26
2 30 15 15 45 177 47 255 1 65 10 109 34 185 51 156 92 219 174 264 111 62
209 47 542 -83 61 -24 171 -64 245 -89 74 -24 227 -77 340 -117 113 -40 216
-76 230 -80 14 -5 70 -25 125 -45 84 -30 452 -161 705 -250 36 -13 130 -46
210 -75 349 -125 546 -190 575 -190 16 0 31 10 42 27 17 25 18 70 18 643 0
684 2 663 -65 684 -39 12 -37 6 -39 141 -1 50 -5 96 -10 104 -5 8 -24 14 -42
13 -34 -1 -41 -4 -179 -71 -81 -40 -89 -42 -170 -40 -87 2 -115 -6 -155 -42
-11 -10 -28 -17 -38 -15 -22 3 -87 63 -87 80 0 7 -7 27 -16 45 -37 75 -11 232
42 251 18 7 19 3 16 -99 -4 -102 -3 -107 22 -133 44 -48 85 -38 174 44 38 34
62 48 83 48 15 0 54 11 85 25 35 16 75 25 106 25 64 0 108 22 108 55 0 43 -45
129 -77 147 -16 9 -54 20 -84 23 -88 10 -99 14 -99 35 0 27 30 40 91 40 65 0
100 -20 200 -117 82 -78 101 -84 121 -34 12 32 11 1677 -1 1834 -9 111 -21
142 -52 134 -10 -3 -27 5 -39 18 -20 21 -21 31 -16 106 3 46 9 152 15 234 9
147 26 248 49 292 16 30 15 58 -4 96 -10 17 -20 66 -25 109 -4 43 -15 88 -24
102 -22 34 -64 34 -103 1 -17 -14 -34 -25 -39 -24 -31 5 -35 -2 -28 -52 7 -46
17 -67 80 -155 7 -9 5 -18 -5 -28 -32 -30 -55 -28 -106 12 -43 34 -56 39 -102
39 -68 0 -102 28 -102 85 0 34 -3 38 -25 38 -60 0 -96 -43 -111 -135 -4 -22
-10 -44 -14 -50 -39 -54 -93 -177 -105 -239 -24 -127 -54 -166 -126 -166 -43
0 -106 35 -112 62 -3 13 -2 66 3 118 9 104 42 194 89 242 14 14 32 33 39 42 6
8 30 20 52 26 45 12 55 26 64 90 12 89 19 116 43 163 27 54 28 54 140 29 54
-12 69 -25 84 -70 16 -50 37 -69 84 -77 22 -4 48 -12 58 -17 13 -6 17 -5 17 7
0 12 6 15 22 9 20 -6 21 -5 6 10 -15 14 -15 22 -2 78 24 104 96 141 154 78 33
-36 37 -36 71 -7 51 43 60 69 72 211 9 118 9 142 -6 195 -9 33 -17 81 -17 107
0 25 -5 54 -10 65 -10 18 -12 18 -59 -7 -27 -13 -57 -34 -67 -46 -11 -11 -36
-29 -56 -39 -26 -13 -45 -34 -62 -67 -32 -63 -79 -109 -144 -139 -68 -32 -79
-52 -47 -87 13 -14 32 -26 42 -26 10 0 28 -7 40 -15 19 -13 21 -20 12 -43 -15
-41 -58 -71 -101 -72 -31 0 -42 6 -76 48 -44 52 -82 119 -82 142 0 8 11 38 24
67 14 29 28 73 32 98 6 42 4 50 -27 87 -25 32 -34 53 -37 94 -6 75 1 93 59
155 l52 54 -46 13 c-33 9 -57 26 -87 59 -48 54 -50 73 -11 96 36 21 74 22 134
1 45 -15 48 -15 79 5 18 11 65 54 105 95 40 42 77 76 82 76 6 0 42 20 81 45
39 25 74 45 78 45 4 0 22 13 39 29 46 42 77 148 77 269 1 137 25 128 -356 136
-465 9 -1831 0 -1905 -12 -41 -7 -262 -9 -630 -6 -607 6 -623 5 -615 -42 15
-78 13 -100 -8 -127 -25 -32 -68 -36 -144 -13 -62 19 -87 9 -118 -45 l-23 -41
-57 5 c-52 5 -56 3 -60 -17 -7 -33 9 -66 29 -66 10 1 34 14 53 30 41 36 45 36
112 7 29 -13 72 -27 95 -30 47 -8 166 -54 233 -90 25 -14 70 -28 100 -31 49
-7 93 -21 189 -62 19 -8 43 -26 53 -40 17 -21 27 -24 86 -24 121 0 223 -41
262 -105 14 -23 21 -51 22 -87 0 -47 3 -121 7 -171 1 -15 8 -18 34 -15 17 1
35 7 40 13 4 7 10 7 15 0 9 -12 46 -20 39 -8 -3 4 53 7 124 5 119 -3 129 -5
129 -22 0 -16 9 -19 53 -22 l52 -3 -3 -54 c-2 -37 -10 -63 -25 -82 -22 -28
-45 -40 -31 -16 5 7 0 6 -11 -3 -11 -9 -16 -10 -11 -2 4 7 1 12 -8 12 -9 0
-16 -6 -16 -13 0 -8 -6 -14 -12 -15 -7 0 -67 -3 -133 -6 -67 -3 -127 -7 -135
-10 -26 -8 -124 -30 -140 -31 -28 -1 -105 -28 -122 -43 -9 -8 -22 -11 -28 -7
-18 11 -51 -34 -40 -55 5 -10 6 -20 3 -24 -14 -14 203 2 233 17 33 17 119 26
254 28 164 2 150 7 150 -53 0 -29 -6 -70 -14 -93 -8 -22 -25 -74 -36 -115 -46
-158 -184 -581 -236 -721 -30 -80 -54 -150 -54 -155 0 -5 -30 -97 -66 -204
-36 -107 -74 -220 -84 -250 -10 -30 -46 -134 -80 -230 -34 -96 -77 -220 -96
-276 -19 -55 -52 -145 -74 -200 -22 -54 -75 -200 -117 -324 -41 -124 -84 -241
-94 -261 -26 -52 -79 -80 -159 -84 -36 -1 -93 -6 -126 -10 -46 -6 -74 -3 -115
9 -85 27 -99 36 -99 66 0 31 13 48 62 81 44 28 58 61 46 106 -8 32 -9 32 -80
35 -96 4 -103 16 -53 98 l38 62 3 137 c2 75 5 158 6 186 3 49 3 50 -44 80 -26
16 -52 40 -57 53 -12 26 -17 185 -6 202 4 6 34 32 67 56 60 44 60 44 127 38
36 -3 71 -1 77 3 5 4 19 31 30 58 17 43 28 53 69 73 27 13 73 28 102 32 29 5
59 12 65 16 7 4 33 12 58 16 25 5 65 13 90 18 25 4 74 13 109 19 69 11 87 21
78 45 -7 18 -56 22 -85 7 -34 -17 -93 -33 -143 -37 -28 -2 -54 -6 -59 -9 -5
-3 -57 -10 -117 -16 -150 -14 -245 7 -277 61 -10 17 -29 32 -44 35 -49 11 -93
38 -109 69 -8 16 -18 61 -22 99 -5 60 -10 73 -32 89 -22 17 -29 18 -55 7 -31
-14 -73 -56 -74 -75 0 -24 -62 -102 -106 -133 -25 -19 -58 -53 -73 -76 -15
-23 -55 -66 -90 -96 -34 -30 -99 -86 -144 -124 -144 -125 -167 -133 -167 -62
0 24 7 66 15 93 9 30 13 82 12 132 -2 77 0 85 22 103 13 11 35 22 50 25 14 3
33 9 41 13 44 24 101 294 79 376 -6 22 -14 77 -18 123 -9 91 -27 122 -89 149
-18 7 -37 24 -42 37 -8 23 0 81 15 105 4 7 4 23 1 37 -5 18 -13 24 -35 24 -34
0 -56 -22 -76 -80 -28 -81 -59 -117 -106 -125 -22 -4 -60 -20 -84 -36 -52 -35
-61 -36 -107 -4 -20 14 -49 25 -63 25 -55 0 -108 -89 -91 -153 3 -13 21 -43
41 -68 45 -57 44 -80 -6 -129 -64 -62 -89 -56 -154 36 -25 35 -59 71 -75 79
-33 17 -147 142 -172 188 -22 40 -22 109 -2 167 20 57 13 119 -16 142 -39 31
-80 23 -141 -28 -30 -25 -63 -53 -74 -62 -14 -12 -39 -17 -84 -17 l-64 0 -132
-138 c-158 -165 -203 -197 -280 -197 -29 0 -60 3 -69 6 -20 8 -21 24 -1 24 8
0 15 6 15 14 0 20 40 59 101 98 86 56 94 69 92 152 -2 97 -30 178 -63 186 -31
7 -38 53 -17 102 39 89 41 104 19 146 -27 47 -92 23 -166 -63 l-50 -57 -59 6
c-105 11 -121 26 -103 102 6 29 5 32 -21 37 -75 14 -203 -141 -203 -247 0 -34
6 -45 47 -83 26 -23 51 -43 56 -43 17 0 -17 -44 -76 -98 -34 -31 -87 -83 -117
-116 -57 -61 -165 -170 -332 -335 -88 -86 -98 -100 -98 -132 0 -32 6 -40 55
-75 129 -91 155 -114 155 -138 0 -40 -53 -63 -166 -71 -72 -5 -109 -13 -134
-27 -42 -25 -170 -40 -254 -31 -76 8 -109 35 -100 85 11 58 55 180 100 277 24
51 44 97 44 102 0 4 13 36 30 71 16 35 41 98 55 139 14 41 30 83 34 94 5 11
18 56 29 100 11 44 28 105 37 135 9 30 22 80 30 110 8 30 26 87 40 125 15 39
35 105 46 149 10 43 30 106 44 140 13 33 47 124 74 201 94 268 110 308 145
352 52 66 94 95 131 88 45 -9 165 -9 206 0 30 5 39 3 48 -12 6 -10 11 -12 11
-5 0 6 8 12 18 12 13 0 14 -2 4 -9 -9 -5 1 -10 30 -15 23 -3 61 -9 83 -12 22
-4 46 -11 54 -18 8 -6 81 -14 180 -17 175 -7 203 -12 194 -35 -3 -7 2 -17 11
-20 9 -3 16 -12 16 -20 0 -8 5 -14 11 -14 5 0 7 -4 4 -10 -3 -5 1 -10 10 -10
9 0 23 -7 32 -15 8 -9 23 -13 32 -11 9 3 58 8 108 10 81 5 95 3 110 -13 10
-10 29 -22 43 -26 14 -4 34 -15 45 -25 11 -10 32 -22 48 -25 15 -4 30 -11 33
-16 7 -12 64 -11 64 1 0 5 12 13 28 16 15 4 33 11 40 17 21 16 42 76 42 118 0
21 11 62 24 92 21 46 31 55 66 67 35 12 48 11 94 -3 87 -28 120 -19 139 36 17
47 -49 107 -117 107 -45 0 -298 86 -332 112 -14 11 -36 38 -49 58 -25 40 -82
68 -183 91 -73 16 -205 84 -239 122 -16 19 -44 59 -61 89 -51 89 -53 90 -209
99 -247 14 -1783 19 -1823 6 -52 -18 -58 -49 -30 -138 46 -143 155 -370 209
-433 23 -26 85 -56 118 -56 16 0 46 9 68 20 22 11 49 20 62 20 41 0 38 -38
-12 -185 -65 -189 -69 -198 -121 -250 -54 -53 -79 -61 -137 -47 -23 6 -94 14
-157 17 -65 4 -157 17 -210 30 -52 13 -116 26 -141 30 -31 4 -54 14 -70 31
-22 23 -24 34 -24 122 1 91 3 101 38 172 20 41 37 85 37 97 0 26 -51 63 -87
63 -12 0 -25 5 -28 10 -3 6 -17 10 -30 10 -13 0 -66 12 -117 26 -194 55 -208
49 -226 -99 -13 -103 -24 -139 -56 -174 -22 -26 -46 -28 -111 -11 -40 11 -50
10 -81 -7 -20 -10 -42 -31 -49 -46 -20 -38 -74 -81 -99 -77 -15 2 -23 13 -29
46 -6 32 -15 45 -33 52 -36 14 -45 48 -29 111 7 30 16 70 19 89 4 22 29 63 67
110 65 80 79 107 79 146 0 22 -11 30 -82 63 -46 21 -119 50 -163 66 -44 15
-114 43 -155 62 -85 39 -136 54 -300 89 -261 57 -246 56 -661 44 -224 -6 -406
-15 -437 -22 -44 -10 -59 -9 -100 5 -68 24 -306 33 -349 13z m-4533 -131 c0
-56 -18 -85 -53 -85 -34 0 -67 25 -67 50 0 23 38 70 64 80 33 12 56 -6 56 -45z
m1079 -186 c69 -58 91 -92 91 -143 0 -43 -26 -113 -52 -142 -27 -30 -93 -23
-127 14 -20 22 -22 33 -18 75 5 59 -7 105 -39 143 -30 34 -31 68 -2 88 42 30
81 20 147 -35z m-2489 -56 c-2 -70 -185 -151 -322 -141 -66 5 -73 9 -65 40 12
47 198 107 360 116 20 2 27 -3 27 -15z m5230 -66 c80 -20 179 -46 220 -57 41
-11 113 -28 160 -36 334 -62 350 -67 350 -110 0 -15 -13 -43 -29 -63 -33 -42
-53 -81 -71 -135 -7 -21 -26 -58 -42 -83 -17 -24 -39 -72 -49 -106 -17 -53
-18 -68 -8 -106 12 -43 12 -44 -21 -70 -56 -44 -394 -375 -408 -399 -18 -31
-12 -66 12 -70 10 -2 49 17 86 42 75 51 114 66 175 66 24 0 66 12 105 31 36
17 92 37 126 45 33 7 86 25 117 39 31 13 78 30 104 36 54 13 118 46 210 108
34 22 65 41 68 41 16 0 125 83 169 128 62 64 89 75 163 68 174 -16 398 -27
438 -21 36 5 58 17 99 54 33 30 81 60 130 80 43 18 92 41 109 52 42 25 89 24
173 -5 99 -33 172 -73 227 -122 50 -45 138 -85 169 -76 10 2 22 19 28 41 5 20
16 45 24 56 13 18 15 18 39 2 14 -9 28 -24 31 -34 2 -10 10 -37 16 -61 15 -57
73 -122 110 -122 24 0 37 8 88 50 36 31 68 32 138 3 61 -25 82 -28 179 -28
110 0 111 0 152 33 55 43 105 49 269 28 162 -19 295 -33 404 -42 135 -10 143
-29 84 -196 -20 -57 -42 -121 -49 -143 -7 -22 -27 -78 -45 -125 -17 -47 -53
-150 -80 -230 -49 -146 -145 -422 -194 -560 -15 -41 -38 -106 -50 -145 -52
-157 -118 -330 -143 -377 -72 -133 -215 -185 -378 -140 -64 18 -496 167 -980
337 -104 37 -221 78 -260 90 -76 25 -404 140 -660 230 -88 31 -223 79 -300
105 -77 27 -212 74 -300 105 -88 31 -191 67 -230 80 -38 12 -149 51 -245 85
-242 86 -504 177 -570 199 -253 85 -333 120 -397 175 -64 55 -93 123 -93 216
0 81 22 152 220 720 39 113 75 216 79 230 15 46 51 109 68 120 28 16 105 6
263 -33z m-2763 -251 c28 -14 59 -36 69 -51 19 -29 13 -50 -33 -118 -17 -24
-30 -60 -35 -100 -5 -34 -29 -120 -54 -192 -25 -71 -48 -141 -51 -155 -13 -70
-12 -70 -44 -70 -19 0 -39 9 -56 26 -24 24 -25 28 -17 102 9 94 8 134 -7 190
-11 41 -11 44 28 100 62 89 73 118 73 192 0 59 3 70 23 83 30 22 44 21 104 -7z
m583 5 c0 -16 -9 -21 -45 -27 -60 -8 -65 -1 -18 24 48 26 63 27 63 3z m-2891
-77 c19 -14 22 -23 18 -50 -3 -19 -15 -47 -25 -62 -11 -15 -32 -49 -47 -77
-15 -27 -52 -80 -81 -117 -38 -47 -54 -76 -54 -96 0 -37 -24 -48 -56 -27 -25
16 -30 34 -15 51 5 5 20 45 35 90 27 81 110 240 149 282 24 26 44 28 76 6z
m16346 -39 c0 -27 -3 -30 -30 -30 -24 0 -31 5 -33 24 -4 27 13 42 43 39 15 -2
20 -11 20 -33z m-13785 10 c27 -14 30 -20 30 -65 0 -27 -8 -71 -19 -97 -10
-26 -22 -73 -25 -103 -8 -60 -44 -198 -57 -215 -5 -6 -11 -29 -15 -51 -8 -52
19 -85 96 -114 71 -28 100 -47 100 -67 0 -32 -129 1 -245 64 -58 31 -65 48
-65 164 0 135 11 190 56 286 20 44 38 100 41 130 6 55 14 67 48 76 11 2 21 5
23 6 2 0 16 -6 32 -14z m-2148 -99 c18 -8 53 -22 78 -32 25 -10 55 -27 68 -38
48 -43 -26 -79 -92 -44 -32 17 -84 0 -101 -32 -14 -26 -14 -33 -1 -58 8 -15
32 -38 55 -50 23 -13 41 -30 41 -37 0 -21 -42 -28 -86 -16 -64 18 -102 14
-130 -14 -46 -46 -59 -29 -44 57 12 71 50 176 80 226 31 50 74 63 132 38z
m2659 -32 c30 -8 79 -23 109 -32 66 -19 87 -37 96 -77 9 -48 -26 -85 -81 -85
-23 0 -59 7 -80 16 -20 8 -51 14 -68 12 -26 -2 -35 -10 -51 -43 -18 -39 -18
-41 0 -75 17 -30 28 -37 94 -55 42 -12 81 -25 88 -29 7 -4 12 -24 12 -46 0
-54 -33 -65 -115 -39 -63 20 -103 23 -121 11 -15 -10 -44 -88 -44 -118 0 -14
5 -34 10 -45 12 -20 79 -59 105 -59 32 0 181 -54 196 -72 9 -10 19 -18 23 -18
3 0 6 27 6 60 0 73 9 75 77 22 66 -52 65 -52 134 -63 77 -12 132 -40 187 -92
36 -35 42 -47 42 -83 0 -58 -34 -106 -83 -116 -62 -13 -156 34 -219 108 -133
158 -147 172 -144 137 2 -35 -61 -28 -154 15 -47 22 -111 47 -143 57 -32 9
-73 30 -93 47 -33 29 -34 33 -30 87 3 31 8 115 11 186 4 72 15 164 25 205 10
41 22 97 25 123 6 37 13 51 34 62 34 19 87 19 152 -1z m-2177 -135 c85 -23
146 -61 146 -90 0 -29 -27 -34 -79 -14 -87 33 -130 36 -186 11 -65 -30 -139
-114 -155 -177 -10 -41 -9 -52 8 -90 11 -25 30 -53 41 -63 27 -25 27 -34 -2
-29 -17 3 -33 22 -55 66 -40 80 -76 200 -68 230 6 27 54 90 88 116 58 45 177
63 262 40z m442 -158 c91 -29 114 -42 121 -69 8 -33 -21 -56 -62 -47 -76 15
-94 16 -114 6 -38 -21 -18 -121 24 -121 8 0 27 -11 42 -25 27 -25 28 -25 8
-40 -11 -9 -26 -12 -35 -9 -8 4 -41 9 -72 12 -51 4 -59 2 -83 -23 -27 -26 -28
-38 -12 -118 3 -16 -32 -21 -50 -6 -15 13 -15 64 0 154 3 17 8 46 12 65 13 75
60 194 90 223 21 22 59 21 131 -2z m-1154 -93 c-10 -10 -10 -8 -2 37 1 6 4 2
7 -9 3 -10 0 -23 -5 -28z m768 -26 c33 -16 35 -20 34 -64 0 -38 -7 -54 -38
-92 -20 -25 -42 -46 -47 -46 -5 0 -9 23 -9 51 0 55 -10 80 -48 121 -37 40 -24
62 31 54 23 -4 58 -15 77 -24z m702 -3 c40 -18 65 -69 98 -204 48 -191 62
-221 95 -197 11 7 31 66 39 117 9 56 47 145 67 156 26 13 69 -12 69 -41 0 -41
-44 -178 -82 -258 -52 -108 -90 -146 -105 -104 -3 9 -26 44 -51 77 -25 33 -54
80 -65 105 -40 89 -65 120 -97 120 -22 0 -36 -9 -57 -37 -54 -73 -61 -70 -56
20 5 80 43 203 74 236 22 24 37 26 71 10z m14030 -64 c8 -18 8 -39 0 -80 -12
-57 -2 -104 22 -106 6 0 25 -2 41 -2 l30 -2 -1 -65 c0 -36 -2 -90 -3 -120 -2
-30 1 -79 6 -107 9 -49 8 -54 -16 -77 -21 -19 -41 -26 -98 -32 -58 -5 -73 -10
-73 -23 0 -14 -2 -14 -10 -1 -5 8 -10 10 -10 3 0 -6 -9 -9 -20 -6 -12 3 -20 2
-19 -3 5 -28 -3 -44 -21 -44 -33 0 -21 64 13 75 15 4 18 8 8 12 -9 4 -10 7 -2
12 13 8 22 80 14 110 -3 11 -14 23 -25 27 -22 7 -22 17 7 169 8 44 18 100 21
125 9 57 36 112 70 139 35 27 52 26 66 -4z m-13440 -136 c11 -6 56 -24 100
-40 93 -33 153 -84 198 -168 48 -87 47 -106 -2 -181 -54 -80 -107 -119 -165
-120 -49 0 -54 9 -18 36 60 45 85 194 46 279 -40 89 -138 136 -175 83 -9 -12
-16 -29 -16 -38 0 -21 -66 -179 -83 -199 -20 -23 -10 -99 14 -112 23 -12 24
-25 3 -33 -9 -3 -25 5 -40 21 -24 26 -25 28 -19 167 6 167 33 287 68 304 29
14 64 14 89 1z m-1817 -94 c28 -27 30 -37 15 -66 -7 -12 -21 -19 -41 -19 -49
0 -69 16 -69 55 0 56 53 73 95 30z m209 -78 c8 -13 7 -24 -4 -44 -20 -35 -32
-38 -60 -15 l-23 19 22 32 c25 34 47 37 65 8z m2221 -59 c38 -16 80 -36 93
-44 22 -15 23 -16 6 -28 -15 -11 -26 -9 -74 15 -48 24 -62 26 -95 19 -43 -10
-65 -32 -65 -64 0 -13 28 -47 71 -88 105 -100 131 -135 128 -178 -6 -89 -43
-94 -87 -12 -18 32 -61 86 -101 124 -39 38 -82 90 -96 117 -13 27 -29 52 -35
56 -30 18 16 92 72 115 33 13 102 1 183 -32z m-2047 -6 c15 -10 40 -24 55 -32
16 -8 24 -16 18 -18 -9 -3 -9 -7 -1 -18 21 -24 -31 -27 -93 -4 -47 18 -57 25
-57 45 0 22 22 44 43 45 5 0 21 -8 35 -18z m255 -79 c14 -13 -14 -29 -43 -25
-29 4 -37 12 -23 25 8 9 58 9 66 0z m300 -91 c12 -11 17 -27 15 -51 -3 -33 -6
-36 -36 -39 -46 -5 -82 21 -82 58 0 54 57 72 103 32z m14725 -110 c26 -113 27
-135 7 -156 -8 -8 -15 -26 -15 -41 0 -15 -7 -28 -17 -32 -10 -3 -36 -14 -59
-24 -22 -11 -45 -19 -51 -19 -6 0 -13 -5 -15 -10 -5 -15 -213 -15 -286 0 -82
17 -105 35 -96 76 7 35 12 36 193 49 41 2 79 9 85 15 5 5 17 10 25 10 19 0 61
39 61 57 0 8 7 21 15 29 8 8 12 20 9 27 -2 7 3 21 13 30 34 32 98 87 103 87 3
0 15 -44 28 -98z m-14523 21 c9 -12 10 -25 3 -46 -9 -24 -15 -28 -41 -25 -37
4 -52 36 -31 67 18 25 52 27 69 4z m9306 -50 c-5 -10 -29 -37 -53 -60 -37 -36
-51 -43 -100 -49 -31 -4 -63 -4 -72 -1 -18 7 -11 39 13 52 65 37 110 55 136
55 17 0 37 5 45 10 25 16 42 12 31 -7z m-9107 -39 c31 -26 56 -50 56 -54 0
-15 -60 -16 -93 -2 -55 24 -62 29 -65 46 -4 17 24 56 38 56 4 0 33 -21 64 -46z
m15020 -34 c39 -36 49 -40 94 -40 43 0 55 -4 77 -27 33 -36 40 -68 54 -248 12
-159 8 -190 -29 -249 -40 -66 -94 -82 -215 -65 -43 6 -99 21 -124 34 -25 13
-63 27 -83 30 -21 4 -38 11 -38 16 0 5 -8 13 -17 16 -10 4 -23 12 -30 19 -16
16 -24 62 -11 66 5 2 12 35 15 73 5 61 15 87 87 229 83 164 100 186 154 186
12 0 41 -18 66 -40z m-15526 -10 c33 -12 58 -43 48 -59 -5 -7 -75 -25 -84 -22
-1 1 -15 -5 -32 -14 -35 -18 -91 -20 -108 -3 -7 7 -12 26 -12 44 0 49 40 76
105 70 28 -2 65 -10 83 -16z m9692 -94 c0 -3 -4 -8 -10 -11 -5 -3 -10 -1 -10
4 0 6 5 11 10 11 6 0 10 -2 10 -4z m-30 -40 c0 -2 -7 -7 -16 -10 -8 -3 -12 -2
-9 4 6 10 25 14 25 6z m-20 -65 c0 -22 -6 -44 -15 -51 -22 -19 -27 -8 -20 44
9 59 35 64 35 7z m-12004 4 c27 -14 55 -25 62 -25 7 0 31 -9 52 -20 22 -11 60
-23 85 -26 24 -3 79 -21 120 -40 70 -31 75 -35 60 -50 -14 -15 -22 -15 -93 2
-42 9 -103 18 -134 18 -49 0 -60 -4 -77 -25 -11 -13 -25 -28 -31 -34 -11 -10
-22 -22 -52 -56 -10 -10 -18 -22 -18 -26 0 -5 -13 -18 -28 -31 -15 -12 -38
-31 -51 -42 -20 -16 -39 -20 -108 -20 -49 0 -83 4 -83 10 0 6 -7 10 -16 10 -9
0 -25 10 -36 23 -16 18 -19 31 -13 71 6 51 35 126 47 126 5 0 8 8 8 18 0 24
78 112 100 112 9 0 23 7 30 15 21 25 118 20 176 -10z m13091 -251 c15 -41 -34
-61 -67 -28 -13 14 -13 17 4 30 26 19 55 18 63 -2z m-522 -161 c3 -27 15 -67
26 -91 14 -32 17 -48 9 -62 -5 -10 -10 -37 -10 -59 0 -22 -5 -52 -12 -66 -11
-25 -15 -26 -71 -21 -32 3 -66 11 -74 18 -19 15 -11 60 17 96 17 21 20 34 14
82 -7 60 1 86 39 128 34 37 55 29 62 -25z m2018 -27 c9 -7 17 -18 17 -23 0
-17 -35 -21 -55 -7 -15 11 -16 16 -5 29 15 18 20 18 43 1z m-958 -19 c14 -11
20 -34 26 -108 5 -52 13 -114 19 -139 14 -57 15 -157 2 -191 -29 -75 -111 -88
-239 -39 -43 16 -104 37 -136 46 -32 9 -61 22 -64 31 -10 25 14 61 54 82 45
23 77 56 126 131 36 55 171 200 185 200 5 0 16 -6 27 -13z m-492 -154 c60 -49
67 -68 41 -108 -26 -40 -83 -35 -135 12 -37 34 -41 41 -36 75 11 82 47 88 130
21z m-71 -385 c79 -30 19 -130 -68 -113 -41 7 -55 31 -47 79 9 55 39 64 115
34z m-250 -70 c21 -23 38 -45 38 -50 0 -4 9 -8 20 -8 19 0 28 -11 34 -42 1 -7
19 -31 40 -52 36 -37 37 -42 31 -85 -9 -62 -28 -95 -72 -128 -35 -26 -51 -42
-140 -136 -27 -28 -43 -37 -62 -35 -24 3 -26 7 -25 50 0 43 4 51 47 91 41 38
56 69 46 100 0 1 16 29 35 61 20 33 36 71 37 85 0 14 1 37 3 51 1 23 -2 25
-29 22 -49 -7 -83 -47 -96 -113 -14 -71 -37 -95 -86 -90 -27 2 -10 160 24 226
20 39 79 95 100 95 9 0 33 -19 55 -42z m1608 30 c0 -7 -7 -32 -15 -56 -14 -39
-14 -47 5 -102 31 -91 25 -174 -22 -335 -26 -88 -72 -129 -132 -118 -29 6 -56
37 -56 65 0 10 -3 18 -7 18 -5 0 -29 21 -55 46 -47 45 -61 85 -40 110 5 5 14
28 21 51 8 31 26 55 67 90 58 50 94 106 94 146 0 28 55 84 90 90 45 8 50 7 50
-5z m-7280 -23 c14 -7 36 -15 50 -18 14 -3 42 -22 63 -41 21 -19 47 -38 58
-41 10 -4 19 -12 19 -19 0 -17 30 -43 55 -48 12 -2 21 -13 24 -28 1 -14 7 -28
13 -31 6 -4 5 -13 -2 -26 -12 -18 -16 -19 -123 -5 -102 13 -115 13 -166 -4
-31 -10 -63 -24 -72 -31 -9 -8 -47 -15 -85 -17 -66 -2 -70 -1 -100 30 -26 27
-31 40 -33 88 -2 67 -28 137 -42 115 -7 -12 -9 -11 -9 3 0 9 -6 19 -12 21 -8
3 -6 6 5 6 9 1 17 6 17 12 0 5 -4 7 -10 4 -15 -9 -12 14 3 30 19 19 36 20 186
16 82 -2 146 -8 161 -16z m10108 -184 c2 -22 -10 -56 -40 -114 -24 -45 -46
-83 -50 -85 -5 -2 -8 -12 -8 -22 0 -10 -7 -31 -15 -46 -8 -16 -15 -50 -15 -75
0 -47 -14 -63 -47 -52 -20 7 -16 85 7 138 22 50 60 164 79 232 15 55 35 75 64
64 15 -6 23 -18 25 -40z m-6793 28 c-4 -5 6 -15 22 -21 16 -6 34 -19 39 -28 5
-10 19 -36 32 -59 20 -37 21 -43 8 -56 -8 -8 -19 -15 -25 -15 -6 0 -10 -6 -8
-12 3 -17 -124 -12 -135 5 -28 44 19 197 60 197 7 0 10 -5 7 -11z m-5595 -158
c0 -6 8 -10 18 -10 20 1 103 -30 84 -31 -20 0 12 -30 32 -30 9 0 16 -8 16 -20
0 -18 7 -20 55 -20 30 0 55 -4 55 -10 0 -5 7 -10 15 -10 8 0 29 -13 47 -30 31
-30 73 -40 80 -18 3 7 11 5 25 -7 12 -10 19 -23 17 -30 -3 -8 5 -12 22 -12 26
0 27 0 9 13 -26 19 -10 18 20 -2 15 -10 25 -12 25 -5 0 15 37 14 43 -1 2 -8 8
-9 13 -4 5 5 4 11 -3 13 -30 11 -9 23 37 23 39 0 50 -4 50 -16 0 -31 27 -44
94 -44 l66 0 0 70 c0 63 2 70 20 70 16 0 20 -7 20 -30 l0 -30 60 0 60 0 0 40
0 40 40 0 c36 0 40 2 40 26 0 29 28 63 38 47 10 -14 62 -26 62 -14 0 6 7 8 15
5 8 -4 15 -1 15 6 0 10 3 10 15 0 8 -6 20 -8 27 -4 7 4 5 -2 -5 -13 -9 -11
-15 -22 -12 -25 3 -2 -4 -4 -15 -3 -11 1 -23 5 -27 10 -5 4 -3 6 2 2 14 -7 41
8 28 16 -14 9 -57 -17 -61 -37 -3 -15 3 -17 40 -16 23 1 66 1 94 1 51 -1 52
-2 58 -36 5 -26 3 -40 -9 -51 -8 -8 -15 -25 -14 -37 0 -21 1 -21 8 -3 7 19 8
19 13 -2 4 -12 2 -22 -3 -22 -6 0 -5 -10 2 -21 11 -21 9 -51 -7 -152 -13 -76
67 -189 174 -247 40 -22 47 -30 50 -60 2 -19 12 -46 23 -61 10 -15 19 -34 19
-42 0 -21 -25 -38 -43 -31 -9 3 -48 -1 -86 -10 -137 -31 -169 -62 -156 -149 6
-41 11 -47 46 -61 22 -9 48 -16 59 -16 20 0 27 2 88 33 19 9 39 17 45 17 7 0
24 6 38 14 54 28 75 28 89 -2 7 -15 16 -34 21 -42 5 -8 20 -36 33 -61 22 -41
117 -139 135 -139 4 0 23 14 41 30 28 25 42 30 86 30 55 0 90 -20 80 -46 -7
-17 28 -28 51 -16 10 6 54 20 98 32 88 24 105 38 105 87 0 39 -33 78 -80 94
-22 8 -31 19 -36 44 -7 40 6 67 60 122 56 57 62 65 58 91 -2 12 4 29 12 38 9
8 16 11 16 4 0 -7 5 -6 14 2 8 8 10 17 6 23 -6 7 -2 11 10 12 10 1 45 14 77
28 32 15 68 31 81 36 12 5 22 13 22 19 0 5 7 10 16 10 9 0 22 7 29 17 15 21
35 9 28 -17 -3 -11 0 -20 6 -20 19 0 12 -62 -11 -112 -16 -33 -31 -51 -51 -58
-16 -5 -26 -14 -23 -19 4 -5 -3 -18 -14 -29 -14 -13 -26 -49 -40 -127 -11 -60
-20 -121 -20 -135 0 -32 39 -70 100 -98 25 -12 57 -28 71 -38 46 -30 104 -1
116 57 3 16 9 29 13 29 4 0 10 10 13 23 26 107 39 150 57 182 48 85 110 286
110 355 0 32 4 61 9 64 4 3 14 26 21 50 7 25 20 53 31 64 10 11 15 23 12 26
-4 3 1 6 11 6 9 0 14 5 11 10 -3 6 -2 10 4 10 6 0 8 7 4 16 -4 10 1 17 16 21
11 3 21 9 21 14 0 5 9 9 20 9 11 0 20 -5 20 -11 0 -5 5 -7 11 -3 8 4 8 9 1 13
-6 4 -12 40 -13 81 -3 75 7 105 48 148 7 7 13 18 13 23 0 5 5 9 10 9 6 0 10
-33 10 -80 l0 -80 60 0 c33 0 60 -4 60 -10 0 -5 -9 -10 -20 -10 -11 0 -20 -4
-20 -10 0 -5 18 -10 40 -10 38 0 40 -2 40 -30 0 -28 2 -30 40 -30 33 0 40 -3
40 -20 0 -17 7 -20 40 -20 33 0 40 -3 40 -20 0 -13 7 -20 20 -20 13 0 20 -7
20 -20 0 -13 7 -20 20 -20 13 0 20 -7 20 -20 0 -18 7 -20 75 -20 62 0 75 -3
75 -16 0 -25 26 -44 59 -44 24 0 31 -4 31 -20 0 -11 5 -20 10 -20 6 0 10 -13
10 -30 0 -16 4 -30 9 -30 5 0 11 -9 14 -20 3 -11 12 -20 21 -20 9 0 16 -4 16
-10 0 -5 18 -10 40 -10 33 0 40 -3 40 -20 0 -15 7 -20 28 -20 21 0 24 -2 12
-10 -10 -6 -11 -10 -2 -10 6 0 12 -7 12 -15 0 -8 8 -15 17 -15 15 0 14 -2 -3
-15 -19 -15 -19 -15 0 -30 10 -8 23 -12 27 -9 5 3 9 0 9 -5 0 -6 -4 -11 -10
-11 -5 0 -10 -5 -10 -11 0 -6 8 -9 18 -7 18 5 21 -2 23 -64 1 -54 9 -78 24
-78 8 0 15 5 15 11 0 5 -4 8 -9 4 -5 -3 -13 -1 -16 5 -4 6 -1 9 7 8 8 -2 14 8
16 25 4 33 42 40 42 7 0 -17 7 -20 40 -20 33 0 40 -3 40 -20 0 -13 7 -20 20
-20 27 0 26 -16 -1 -23 -20 -5 -20 -7 -6 -21 9 -9 21 -16 28 -16 20 0 2 -150
-22 -176 -11 -12 -19 -34 -19 -57 0 -20 -6 -51 -14 -69 -22 -54 -37 -100 -48
-148 -6 -25 -14 -49 -18 -55 -4 -5 -10 -30 -14 -55 -4 -24 -12 -50 -19 -58 -6
-8 -13 -26 -15 -40 -2 -15 -7 -31 -11 -37 -4 -5 -16 -39 -26 -75 -10 -36 -24
-74 -31 -85 -16 -28 -42 -156 -48 -240 -4 -47 -17 -102 -42 -165 -20 -52 -49
-133 -64 -180 -15 -47 -46 -125 -68 -175 -21 -49 -42 -102 -45 -116 -4 -15
-22 -48 -40 -75 -19 -27 -37 -60 -40 -74 -8 -29 -14 -38 -44 -63 -23 -20 -23
-20 -72 24 -19 17 -98 47 -156 59 -50 11 -91 -35 -101 -114 -7 -51 7 -83 69
-152 104 -116 105 -183 0 -308 -16 -19 -21 -35 -17 -48 13 -41 12 -69 -2 -64
-10 4 -14 -3 -14 -22 0 -34 -46 -82 -81 -84 -74 -5 -98 3 -144 42 -25 22 -54
41 -63 41 -9 1 -85 1 -169 0 l-151 -1 -20 32 c-11 19 -23 62 -27 98 -4 36 -11
85 -17 110 -19 89 -20 117 -4 153 10 19 28 40 41 47 27 14 38 45 21 58 -14 12
-110 35 -145 34 -14 0 -43 9 -63 21 -30 16 -38 27 -38 49 0 21 6 31 24 37 54
21 48 180 -8 225 -32 25 -32 53 -1 70 11 6 23 16 27 22 10 15 79 33 158 42 60
7 65 9 65 32 0 20 -10 28 -65 50 -97 38 -129 57 -150 93 -22 35 -27 116 -9
134 14 14 14 81 0 116 -20 52 -14 115 17 161 15 22 38 64 51 91 12 28 29 62
37 77 8 14 14 39 14 54 0 44 -50 196 -62 192 -7 -3 -17 -29 -24 -59 -7 -30
-26 -81 -42 -114 -19 -38 -32 -83 -36 -121 -5 -56 -21 -111 -36 -124 -4 -3
-21 -26 -38 -52 -18 -26 -38 -51 -46 -55 -7 -4 -27 -33 -44 -63 -17 -30 -48
-66 -69 -80 -35 -24 -38 -29 -35 -67 5 -63 -18 -100 -70 -108 -24 -4 -54 -9
-68 -12 -14 -2 -32 -10 -40 -18 -8 -7 -24 -15 -35 -17 -15 -3 -20 -11 -18 -33
3 -59 28 -140 47 -156 29 -24 27 -132 -3 -160 -19 -18 -26 -38 -22 -62 1 -4 2
-43 2 -87 1 -110 -23 -161 -83 -177 -28 -7 -68 -8 -113 -2 -38 4 -105 8 -148
8 -86 1 -123 14 -156 57 -20 26 -28 64 -15 77 11 11 53 117 70 177 8 30 30 84
48 120 31 61 34 76 49 245 10 106 24 207 36 245 20 68 49 255 81 525 14 125
25 178 50 240 34 89 54 131 72 158 11 15 10 20 -6 33 -11 8 -32 14 -47 14 -24
0 -32 -9 -68 -84 -23 -46 -41 -87 -41 -91 0 -4 -23 -68 -51 -143 -28 -76 -62
-179 -75 -229 -13 -51 -35 -136 -49 -188 -20 -80 -61 -190 -106 -290 -16 -36
-59 -188 -59 -210 0 -12 -14 -74 -30 -136 -33 -125 -41 -243 -19 -303 10 -28
10 -41 0 -62 -10 -24 -16 -26 -49 -21 -48 7 -114 38 -177 84 -27 21 -99 68
-160 106 -60 39 -141 93 -180 122 -38 28 -86 60 -105 71 -19 10 -46 27 -59 37
-29 21 -58 22 -105 2 -51 -22 -60 -52 -35 -114 16 -37 36 -61 80 -95 32 -25
59 -50 59 -56 0 -5 -18 -14 -39 -20 -43 -11 -64 -5 -118 34 -26 19 -40 22 -83
18 -48 -4 -52 -3 -88 34 -20 22 -52 46 -70 53 -33 14 -58 53 -46 72 3 5 41 9
85 9 44 0 90 5 102 12 23 13 37 16 75 20 18 2 20 5 10 13 -8 5 -28 36 -46 67
-45 80 -33 105 74 162 53 29 68 49 79 109 8 40 62 97 120 127 53 27 72 25 90
-10 30 -58 75 -61 131 -7 20 19 24 32 24 87 0 49 5 74 22 100 19 32 22 51 24
192 2 113 7 164 17 185 8 15 18 69 21 118 5 76 13 143 28 250 2 14 -3 21 -19
23 -16 2 -23 -3 -28 -27 -3 -16 -13 -35 -20 -41 -12 -10 -22 -50 -30 -120 -6
-49 -30 -105 -65 -149 -21 -27 -43 -52 -48 -55 -5 -3 -15 -26 -22 -52 -15 -52
-61 -104 -115 -130 -19 -9 -35 -22 -35 -29 0 -8 -9 -17 -20 -20 -11 -3 -20
-14 -20 -24 0 -14 -10 -20 -45 -24 -26 -2 -48 -6 -50 -9 -2 -2 0 -22 5 -45 9
-37 7 -47 -17 -85 -16 -25 -51 -59 -84 -81 -32 -21 -58 -45 -58 -55 -1 -9 -4
-34 -7 -54 -5 -32 -10 -38 -33 -39 -43 -2 -73 2 -128 16 -59 15 -56 18 -68
-67 -5 -36 -13 -52 -32 -65 -15 -10 -63 -53 -107 -95 -90 -87 -120 -103 -170
-94 -44 8 -146 106 -146 139 1 28 22 57 44 57 9 0 16 8 16 20 0 21 29 29 31 8
0 -9 2 -9 6 1 4 10 7 10 13 1 12 -19 66 -23 84 -5 18 19 23 110 5 120 -12 8
-28 45 -39 91 -5 23 -2 40 15 70 25 45 58 64 112 65 21 0 65 10 98 21 70 24
131 81 141 134 6 35 -1 72 -13 60 -3 -3 -13 0 -22 8 -27 24 -92 36 -190 36
-98 0 -120 -9 -121 -51 0 -27 -80 -36 -80 -10 0 16 -54 31 -113 31 -34 0 -68
4 -76 9 -10 7 -24 -1 -50 -28 -45 -47 -110 -60 -150 -32 -14 10 -50 29 -79 41
-59 25 -87 65 -79 109 3 14 16 60 30 101 14 41 40 129 58 195 18 66 43 144 56
174 13 30 40 100 58 156 19 57 55 145 81 196 55 111 75 163 79 207 7 73 90
294 186 497 51 108 159 247 159 206z m7788 -38 c2 -52 -7 -63 -54 -63 -24 0
-33 5 -37 21 -8 31 -1 42 46 66 23 12 42 22 42 22 1 1 2 -20 3 -46z m-10832
-10 c9 -21 19 -59 22 -85 l4 -47 27 15 c14 8 42 26 61 40 27 20 43 24 69 20
89 -14 103 -62 44 -160 -20 -33 -39 -63 -42 -66 -4 -3 -24 -30 -46 -60 -133
-180 -176 -297 -95 -255 27 14 90 95 90 115 0 5 6 13 13 17 6 4 17 16 22 25
18 32 108 162 148 216 48 64 96 88 141 72 38 -13 76 -48 76 -70 0 -9 -23 -45
-51 -80 -28 -35 -111 -154 -184 -264 -130 -195 -166 -236 -211 -236 -9 0 -46
16 -80 35 -37 20 -85 37 -116 41 -29 4 -65 14 -80 22 -29 17 -65 92 -54 111 4
6 2 20 -5 32 -7 14 -14 18 -18 11 -4 -6 -33 -23 -65 -37 -68 -30 -129 -27
-146 6 -19 34 7 63 130 147 89 61 126 72 155 44 24 -22 41 -18 77 19 33 34 71
106 60 113 -5 3 -31 4 -58 4 -64 -1 -154 42 -154 74 0 19 36 78 64 103 20 18
66 83 66 94 0 11 28 18 81 20 33 1 39 -3 55 -36z m4364 27 c0 -5 -5 -10 -11
-10 -5 0 -7 5 -4 10 3 6 8 10 11 10 2 0 4 -4 4 -10z m-3412 -82 c21 -21 13
-59 -25 -112 -32 -44 -38 -61 -42 -121 l-6 -70 -55 -26 c-63 -31 -67 -35 -146
-149 -149 -217 -144 -207 -144 -286 0 -66 -2 -74 -26 -93 -35 -27 -59 -26
-121 4 -36 18 -56 36 -68 61 -25 53 -19 66 142 311 89 135 115 190 112 241 -3
50 2 57 59 78 52 20 63 29 112 93 18 24 47 52 64 62 35 22 125 26 144 7z
m11052 -49 c12 -28 12 -33 -4 -45 -16 -11 -22 -10 -42 4 -33 24 -50 68 -34 87
10 13 16 13 40 0 15 -8 33 -28 40 -46z m4159 7 c23 -28 -8 -71 -94 -129 -22
-15 -60 -45 -85 -67 -55 -48 -58 -51 -92 -73 -36 -22 -41 -22 -33 6 7 22 207
226 255 259 30 22 34 22 49 4z m-12759 -16 c0 -5 -4 -10 -10 -10 -5 0 -10 5
-10 10 0 6 5 10 10 10 6 0 10 -4 10 -10z m7264 -16 c9 -8 16 -21 16 -28 0 -8
7 -19 15 -26 8 -7 15 -29 15 -50 0 -21 -7 -43 -15 -50 -8 -7 -15 -18 -15 -25
0 -7 -9 -24 -20 -38 -11 -14 -20 -38 -20 -54 0 -16 -16 -59 -36 -97 -34 -64
-36 -72 -30 -131 3 -34 13 -76 21 -93 9 -16 17 -48 20 -71 3 -33 0 -43 -16
-51 -18 -10 -25 -3 -20 24 7 37 -42 73 -84 62 -17 -4 -22 -14 -23 -41 -1 -20
-4 -39 -6 -44 -3 -4 0 -26 6 -50 l11 -43 48 6 c30 4 49 2 49 -4 0 -5 7 -10 15
-10 8 0 15 -4 15 -9 0 -5 7 -16 15 -25 14 -13 14 -19 -1 -56 -14 -35 -15 -49
-4 -102 6 -34 19 -75 29 -93 14 -27 20 -31 39 -24 35 13 43 48 21 91 -11 21
-19 48 -19 60 0 13 -9 38 -20 56 -24 39 -24 34 -1 61 23 26 39 21 86 -29 17
-18 46 -40 66 -50 19 -10 41 -26 49 -34 11 -14 29 -15 119 -10 58 4 103 3 98
-1 -4 -5 0 -16 9 -26 8 -9 17 -28 18 -41 6 -41 66 -179 95 -216 16 -21 38 -63
50 -96 12 -32 35 -84 51 -115 17 -31 30 -67 30 -81 0 -37 -78 -274 -108 -327
-21 -38 -49 -29 -57 17 -10 59 -63 134 -98 138 -30 4 -90 -27 -166 -85 -53
-40 -89 -42 -122 -7 -13 14 -41 33 -62 41 -26 11 -48 32 -74 70 l-35 54 -36
-36 c-19 -19 -44 -35 -54 -35 -11 0 -43 20 -73 44 -36 29 -67 45 -96 50 -23 4
-44 5 -46 2 -2 -2 -4 -28 -4 -57 0 -68 -15 -116 -40 -130 -18 -9 -22 -5 -37
31 -14 32 -25 43 -54 52 -20 6 -53 28 -74 49 -37 38 -37 39 -19 59 12 13 31
20 57 20 51 0 56 16 27 85 -32 78 -41 83 -95 57 -24 -12 -54 -22 -66 -22 -24
0 -58 27 -58 46 0 7 -22 20 -50 29 -29 10 -51 24 -55 35 -3 10 -25 34 -50 54
-42 35 -43 37 -33 72 5 20 7 45 5 56 -5 16 -2 19 14 15 12 -3 19 0 19 8 0 8 9
17 20 20 30 10 53 61 46 104 -17 114 -22 130 -32 123 -22 -14 -36 -56 -44
-134 -4 -47 -13 -84 -21 -88 -32 -21 -140 71 -201 172 -18 29 -42 51 -73 67
-25 12 -52 35 -59 50 -8 15 -62 72 -120 128 l-106 101 0 113 c0 128 -17 193
-54 203 -25 7 -55 -26 -56 -60 0 -34 -27 -90 -51 -106 -19 -12 -28 -12 -61 -1
-59 20 -103 53 -131 98 -36 57 -28 74 51 109 83 37 145 94 182 169 16 32 36
65 45 73 15 16 45 13 45 -4 0 -5 31 -8 70 -7 l70 2 120 -116 c66 -64 120 -120
120 -125 0 -33 113 -126 154 -126 26 0 160 -50 164 -62 2 -4 10 -8 18 -8 8 0
14 -4 14 -9 0 -5 21 -6 48 -4 47 6 82 26 82 48 0 28 80 33 136 10 38 -15 244
-9 244 8 0 6 7 18 16 28 18 20 21 90 6 129 -10 26 -1 63 17 75 6 3 11 15 11
25 0 11 20 42 45 70 25 28 45 55 45 59 0 8 66 49 82 50 4 1 14 -6 22 -15z
m-1965 -46 c13 -57 6 -68 -33 -61 -15 3 -27 17 -35 39 -7 19 -17 34 -22 34 -5
0 -9 5 -9 10 0 6 9 10 20 10 11 0 20 5 20 10 0 6 11 10 24 10 21 0 26 -7 35
-52z m3509 -10 c27 -27 2 -81 -30 -62 -5 3 -12 -3 -15 -15 -10 -40 -20 -21
-17 32 2 28 3 53 4 55 1 8 48 0 58 -10z m-10604 -52 c71 -30 59 -60 -54 -136
-153 -103 -358 -273 -443 -368 -27 -30 -4 -36 27 -7 32 29 73 32 122 9 49 -23
58 -45 50 -128 -7 -79 -23 -110 -69 -134 -17 -10 -56 -40 -88 -69 -69 -62 -98
-72 -146 -49 -38 18 -39 21 -17 133 6 30 3 33 -47 62 -30 17 -60 31 -68 31
-24 0 -81 50 -81 71 0 64 84 156 216 239 91 57 221 148 314 221 192 151 207
157 284 125z m12838 -21 c9 -21 7 -37 -17 -97 -15 -40 -43 -104 -61 -143 -69
-143 -125 -304 -122 -348 3 -38 0 -42 -21 -45 -74 -11 -96 29 -58 105 39 75
67 171 67 226 0 40 5 55 29 82 16 19 38 57 49 87 11 29 32 77 47 106 21 42 31
52 51 52 16 0 28 -8 36 -25z m-8662 5 c0 -5 10 -11 23 -11 l22 -2 -23 -4 c-12
-2 -20 -9 -16 -14 7 -12 -16 -8 -32 6 -8 7 -8 13 0 22 13 15 26 17 26 3z
m2668 -27 c0 -10 4 -40 10 -67 13 -66 0 -114 -35 -122 -34 -9 -57 6 -61 39 -3
25 8 50 48 112 11 17 23 36 26 43 9 17 13 15 12 -5z m3729 -75 c-3 -7 -5 -2
-5 12 0 14 2 19 5 13 2 -7 2 -19 0 -25z m4041 -117 c4 -47 3 -51 -16 -51 -26
0 -38 52 -22 94 15 40 31 21 38 -43z m-7476 -18 c10 -9 18 -27 18 -40 0 -24
32 -64 132 -168 86 -90 62 -105 -118 -70 -74 14 -99 26 -168 80 -56 44 -70 76
-52 117 7 18 22 42 32 54 37 41 124 57 156 27z m6418 2 c10 -12 10 -23 -3 -58
-9 -23 -21 -62 -27 -87 -15 -56 -47 -127 -71 -159 -11 -13 -19 -37 -19 -53 0
-16 -9 -45 -19 -66 -10 -20 -26 -61 -34 -90 -9 -29 -23 -59 -31 -68 -14 -13
-18 -12 -37 7 -13 13 -19 29 -16 42 17 80 39 139 64 180 22 33 32 64 36 109 3
35 15 82 27 105 11 23 20 48 20 55 0 7 9 32 20 56 16 35 24 42 48 42 16 0 35
-7 42 -15z m-8187 -128 c3 -8 -1 -14 -9 -14 -8 0 -14 6 -14 14 0 7 4 13 9 13
5 0 11 -6 14 -13z m4498 -94 c38 -38 73 -72 79 -78 43 -41 52 -61 47 -108 -4
-51 -29 -87 -58 -87 -26 0 -34 -41 -15 -78 9 -17 16 -47 16 -66 0 -42 64 -172
92 -187 47 -25 189 26 204 73 3 10 11 18 18 18 14 0 75 66 77 83 1 7 1 18 0
25 -1 6 3 12 9 12 5 0 9 3 8 8 -5 23 15 41 41 36 41 -9 109 13 116 36 4 12 17
27 30 36 13 8 26 26 29 40 5 19 12 25 29 22 24 -3 25 -13 12 -113 -9 -70 23
-156 68 -183 35 -20 57 -46 111 -127 29 -44 40 -52 92 -68 58 -18 69 -18 212
-1 60 7 71 1 74 -41 3 -29 29 -65 48 -65 16 0 23 -47 17 -113 -5 -65 -124
-437 -172 -537 -27 -58 -120 -215 -157 -265 -21 -28 -59 -96 -120 -217 -32
-63 -59 -88 -96 -88 -28 0 -78 25 -89 44 -16 27 -245 156 -279 156 -11 0 -14
6 -8 23 13 43 43 92 79 132 20 22 48 58 62 80 14 22 39 57 55 78 27 34 76 146
91 207 3 14 2 32 -4 40 -8 13 -11 13 -22 0 -6 -8 -28 -27 -49 -42 -20 -15 -72
-64 -116 -108 -46 -46 -88 -80 -100 -80 -11 0 -32 -16 -46 -35 -44 -57 -127
-85 -154 -52 -15 18 -10 249 5 254 6 2 17 28 24 57 10 48 9 56 -11 97 -13 24
-48 73 -79 109 -65 74 -140 182 -192 277 -48 87 -201 263 -322 371 -43 39 -47
69 -14 107 21 26 27 27 110 25 48 -2 110 -3 137 -4 28 0 50 -4 50 -8 0 -5 6
-8 14 -8 8 0 17 -6 20 -12 3 -7 3 -2 0 11 -4 16 -3 21 5 17 7 -5 11 6 11 33 0
23 -5 41 -10 41 -58 0 -206 24 -217 36 -8 8 -20 14 -27 14 -8 0 -26 15 -42 33
-16 19 -39 39 -51 46 -17 9 -23 21 -23 46 0 40 17 52 87 62 26 3 66 17 88 29
26 15 57 23 89 24 48 0 52 -2 117 -67z m4100 -20 c9 -10 19 -34 23 -53 10 -63
-62 -157 -110 -144 -26 7 -25 26 4 126 11 37 17 70 14 72 -3 3 1 12 8 21 14
16 34 9 61 -22z m-10837 -83 c12 -12 1 -37 -24 -50 -18 -10 -22 -7 -34 22 -11
25 -11 35 -3 40 13 8 46 1 61 -12z m2484 -75 c-3 -3 -9 2 -12 12 -6 14 -5 15
5 6 7 -7 10 -15 7 -18z m1016 -17 c12 -86 26 -289 21 -310 -3 -13 -9 -68 -14
-122 -7 -87 -6 -104 10 -140 10 -23 21 -40 24 -38 3 1 5 -1 5 -5 0 -5 -15 -9
-33 -11 -48 -4 -141 52 -164 98 -36 75 -28 187 25 355 56 174 114 254 126 173z
m-3019 -159 c4 -6 -2 -13 -14 -16 -12 -3 -21 -10 -21 -17 0 -6 -5 -3 -11 8 -9
14 -8 20 2 27 19 12 36 11 44 -2z m7568 -105 c6 -33 -16 -50 -47 -36 -24 11
-31 42 -9 42 7 0 12 3 12 8 -5 31 38 18 44 -14z m-3196 -454 c43 -43 55 -49
79 -44 40 8 84 -11 84 -35 0 -23 -45 -51 -80 -51 -37 0 -77 -36 -85 -76 -7
-38 9 -94 28 -94 14 0 1 -71 -15 -82 -38 -24 -128 10 -128 49 0 9 11 30 23 47
13 17 26 41 29 53 7 25 -18 66 -35 60 -7 -2 -20 2 -29 10 -15 13 -19 12 -41
-9 -14 -14 -28 -39 -31 -56 -4 -17 -19 -38 -33 -47 -23 -15 -35 -16 -92 -7
-36 6 -77 20 -91 31 -24 18 -25 23 -22 104 1 47 6 104 10 128 6 38 11 44 35
47 31 4 58 -21 81 -75 9 -20 30 -40 55 -52 47 -24 61 -26 61 -8 0 8 20 35 44
61 25 26 48 55 51 66 3 10 16 21 28 23 12 2 22 5 23 6 0 0 23 -21 51 -49z
m-6977 -252 c0 -9 4 -8 10 2 8 12 10 10 10 -10 0 -19 2 -22 9 -11 10 15 10 16
26 -64 3 -14 12 -25 21 -25 8 0 12 -4 9 -10 -3 -5 -2 -10 3 -10 6 0 13 -15 16
-34 5 -25 13 -36 29 -39 15 -3 11 -5 -13 -6 -19 -2 -46 -4 -59 -5 -14 -2 -34
7 -50 21 -14 14 -19 21 -11 17 13 -7 13 -6 1 9 -8 11 -21 15 -32 12 -13 -4
-19 -1 -19 9 0 9 -3 15 -7 14 -5 -1 -18 1 -30 6 -26 8 -33 56 -9 56 15 0 26
21 26 51 0 11 5 17 10 14 6 -3 10 -1 10 4 0 6 11 11 25 11 14 0 25 -6 25 -12z
m8894 -128 c-2 -61 -50 -213 -73 -234 -16 -15 -30 -17 -84 -11 -44 5 -67 3
-71 -4 -4 -6 -11 -9 -15 -6 -5 2 -11 -50 -13 -118 -5 -131 -12 -159 -34 -150
-8 3 -34 -4 -59 -16 -25 -12 -55 -21 -67 -21 -26 0 -68 37 -68 60 0 27 107
181 153 221 23 21 48 34 58 32 22 -6 26 2 49 91 10 41 29 90 42 110 26 41 119
95 158 93 23 -2 25 -6 24 -47z m-1152 -108 c11 -24 16 -51 13 -62 -6 -19 -8
-20 -35 -3 -35 20 -60 94 -40 118 17 21 37 4 62 -53z m1106 -388 c4 -42 -31
-86 -67 -82 -35 4 -40 47 -11 89 17 23 29 29 49 27 21 -2 27 -9 29 -34z
m-5926 -331 c43 -41 32 -109 -23 -150 -24 -18 -33 -62 -16 -82 23 -28 37 -70
37 -112 0 -42 19 -78 62 -119 40 -37 98 -191 98 -260 0 -62 -19 -100 -51 -100
-40 0 -155 43 -183 69 -26 25 -28 29 -22 86 11 109 18 140 37 181 24 51 24 79
0 110 -10 13 -25 44 -32 69 -10 34 -21 48 -45 60 -53 25 -104 114 -104 180 0
53 27 80 100 98 65 17 101 9 142 -30z m-1618 -129 c86 -45 233 -143 263 -175
26 -29 31 -57 15 -86 -10 -19 -21 -23 -61 -23 -39 0 -62 9 -136 53 -100 59
-169 116 -190 158 -27 52 -15 109 24 109 8 0 46 -16 85 -36z m9301 -244 c-3
-5 -11 -10 -16 -10 -6 0 -7 5 -4 10 3 6 11 10 16 10 6 0 7 -4 4 -10z m-13861
-442 c17 -28 -4 -53 -45 -53 -28 0 -35 4 -37 24 -7 46 57 68 82 29z m3640 11
c35 -16 37 -38 5 -80 -16 -19 -43 -64 -62 -100 -24 -47 -39 -65 -56 -67 -23
-4 -24 -2 -17 50 16 118 55 208 92 208 7 0 24 -5 38 -11z m266 -65 c25 -9 70
-28 100 -43 58 -30 139 -61 205 -81 54 -16 105 -41 105 -52 0 -4 11 -8 25 -8
14 0 53 -11 87 -25 34 -14 66 -25 71 -25 13 0 134 -46 167 -64 14 -7 57 -24
95 -36 39 -13 88 -31 110 -40 22 -10 55 -23 74 -31 31 -12 32 -13 15 -26 -20
-14 -50 -9 -76 15 -17 14 -47 13 -105 -4 -18 -5 -25 -1 -32 19 -13 33 -36 45
-84 45 -20 0 -49 8 -64 17 -14 10 -51 21 -82 26 -153 22 -167 28 -186 70 -13
28 -24 39 -39 39 -26 -1 -69 -38 -90 -79 -9 -17 -20 -31 -25 -31 -4 0 -12 23
-17 52 -8 44 -14 55 -39 67 -16 8 -37 18 -45 23 -33 18 -57 26 -109 35 -51 10
-55 9 -103 -23 -70 -47 -88 -45 -88 9 0 23 -11 69 -24 102 -14 32 -22 63 -19
68 7 12 116 0 173 -19z m-1147 -121 c20 -19 22 -41 6 -80 -6 -15 -15 -37 -19
-48 -35 -94 -50 -138 -67 -190 -11 -35 -25 -61 -34 -63 -9 -2 -27 14 -43 38
-23 35 -31 40 -64 40 -68 0 -79 39 -38 131 13 30 34 87 46 127 15 46 32 80 47
92 23 18 25 18 86 -7 34 -14 70 -32 80 -40z m904 -95 c-3 -7 -5 -2 -5 12 0 14
2 19 5 13 2 -7 2 -19 0 -25z m-652 -93 c-12 -116 -37 -248 -51 -270 -16 -25
-44 -24 -65 1 -7 8 -30 14 -55 14 -41 0 -44 2 -44 26 0 31 46 126 101 206 21
32 39 61 39 65 0 4 12 18 27 31 26 22 28 22 40 5 10 -12 12 -36 8 -78z m3762
63 c11 -13 30 -41 41 -63 26 -52 57 -79 112 -101 66 -25 90 -50 90 -95 0 -44
-26 -105 -59 -138 -36 -36 -70 -31 -128 17 -39 34 -57 42 -89 42 -30 1 -43 6
-58 26 -42 59 -39 280 5 317 29 23 61 21 86 -5z m-3505 -47 c34 -15 83 -38
108 -49 25 -11 61 -24 80 -27 49 -10 106 -65 67 -65 -26 0 -56 -46 -102 -160
-45 -112 -68 -150 -81 -138 -9 9 14 112 42 191 39 111 28 154 -44 164 -48 6
-88 -16 -95 -55 -12 -62 -79 -236 -104 -268 -53 -70 -59 22 -10 141 58 142 62
158 47 219 -20 85 -7 92 92 47z m445 -215 c-6 -58 -59 -231 -90 -291 -22 -44
-33 -55 -59 -55 -15 0 -18 8 -18 43 1 23 8 60 16 82 8 22 30 84 48 137 42 122
58 148 87 141 19 -5 21 -11 16 -57z m1485 12 c42 -16 83 -28 90 -25 7 2 30 -4
50 -14 21 -11 45 -19 55 -19 29 0 123 -48 123 -62 0 -7 -7 -21 -15 -32 -8 -10
-17 -38 -21 -63 -5 -35 -15 -51 -52 -83 -24 -22 -49 -40 -55 -40 -7 0 -8 38
-4 110 l7 110 -27 17 c-14 9 -43 17 -64 18 -23 1 -47 9 -61 21 -38 33 -76 54
-99 54 -12 0 -31 8 -42 18 -15 12 -18 13 -12 2 6 -12 5 -12 -5 -3 -19 18 -2
36 29 28 14 -3 61 -20 103 -37z m2872 -9 c19 -17 14 -39 -9 -45 -51 -13 -85
22 -53 54 12 12 45 7 62 -9z m-4050 -52 c19 -12 35 -25 36 -28 0 -4 -18 -9
-41 -12 -49 -6 -70 -24 -94 -77 -15 -34 -16 -46 -6 -79 6 -21 22 -46 36 -55
47 -31 23 -76 -41 -76 -15 0 -42 -11 -60 -25 -54 -41 -64 -35 -64 41 0 58 5
75 39 138 21 39 46 95 56 123 27 85 64 98 139 50z m6103 -100 c60 -63 85 -109
81 -145 l-3 -27 -107 -2 c-97 -1 -108 1 -113 18 -4 10 -10 19 -15 19 -16 0
-71 53 -68 66 2 7 25 38 53 68 43 49 54 56 86 56 31 0 44 -8 86 -53z m-4484
22 c56 -30 51 -58 -42 -241 -8 -15 -23 -28 -33 -28 -16 0 -18 8 -18 48 1 26
-1 65 -3 87 -3 22 1 56 8 75 7 19 16 43 19 53 6 20 37 22 69 6z m-1311 -21
c50 -21 73 -52 62 -83 -8 -21 -37 -19 -58 4 -25 28 -62 34 -90 15 -27 -17 -46
-83 -46 -155 0 -75 -74 -181 -116 -165 -25 10 -16 85 22 176 19 47 46 112 60
145 13 33 32 66 41 73 25 18 68 15 125 -10z m307 -117 c79 -24 95 -52 66 -114
-17 -38 -61 -162 -69 -197 -3 -14 -19 -41 -35 -60 l-29 -35 -10 25 c-13 33
-53 54 -87 46 -71 -18 -75 62 -9 195 26 52 57 108 70 126 25 33 37 35 103 14z
m3255 -56 c22 -33 20 -42 -10 -49 -35 -9 -62 1 -69 25 -15 47 51 67 79 24z
m2122 -45 c23 0 28 -28 9 -56 -24 -37 -41 -17 -36 43 3 26 6 40 9 31 2 -10 10
-18 18 -18z m5532 2 c2 -7 16 -12 30 -12 19 0 33 -10 49 -33 38 -56 73 -146
73 -188 0 -84 -58 -224 -88 -214 -8 3 -20 5 -28 5 -23 0 -18 57 6 70 37 20 26
78 -37 203 -64 125 -65 130 -53 162 9 24 41 28 48 7z m-10603 -12 c22 -11 45
-19 51 -20 6 0 19 -9 29 -20 17 -19 17 -25 0 -141 -18 -129 -39 -185 -82 -219
-41 -32 -46 -26 -41 49 3 54 11 85 40 142 46 94 53 116 38 134 -7 8 -9 15 -4
15 23 1 -25 20 -49 20 -34 0 -77 -43 -77 -76 0 -13 -12 -60 -26 -105 -29 -91
-65 -139 -89 -119 -8 7 -15 27 -15 45 0 32 61 184 86 215 6 8 15 26 19 40 18
61 52 73 120 40z m9512 -39 c11 -11 36 -46 54 -78 18 -32 43 -73 56 -92 57
-85 7 -158 -165 -242 -62 -30 -122 -53 -142 -53 -32 -1 -35 2 -38 28 -4 35 22
124 54 186 13 25 44 90 69 144 63 137 71 145 112 107z m-10155 -13 c32 -25 31
-60 -2 -105 -18 -24 -35 -43 -38 -43 -24 1 -35 24 -39 87 l-5 69 34 2 c18 1
41 -3 50 -10z m5718 -83 c8 -17 27 -42 43 -57 34 -34 34 -52 -2 -89 -50 -49
-61 -40 -74 61 -2 16 -46 25 -81 16 -13 -3 -28 -17 -34 -31 -15 -33 -40 -23
-48 21 -12 63 -1 77 68 95 88 23 110 20 128 -16z m398 -14 c71 -47 82 -63 75
-116 -7 -57 -17 -65 -84 -65 -76 0 -104 14 -134 68 -32 58 -33 115 -3 136 37
26 80 19 146 -23z m-5214 -12 c0 -41 -49 -221 -69 -258 -46 -84 -75 -81 -75 8
0 51 7 72 48 153 59 116 74 139 87 135 5 -2 10 -19 9 -38z m163 -95 c-9 -107
-49 -224 -88 -259 -24 -23 -49 -12 -49 20 0 62 114 325 133 306 5 -5 7 -35 4
-67z m193 -10 c6 -14 10 -40 10 -57 0 -32 32 -97 48 -97 14 0 57 53 75 93 17
37 30 46 42 27 3 -5 -1 -38 -9 -72 -8 -35 -18 -79 -22 -98 -9 -47 -50 -129
-82 -162 -30 -32 -65 -36 -84 -10 -7 10 -33 31 -58 48 l-45 30 0 74 c1 63 6
87 34 150 18 41 38 81 43 88 17 20 38 14 48 -14z m482 -127 c7 -11 3 -77 -8
-147 -3 -19 -16 -55 -30 -79 -13 -24 -24 -52 -24 -63 0 -25 -23 -69 -48 -90
-19 -15 -20 -15 -26 14 -4 22 1 47 19 86 14 30 25 61 25 69 0 7 11 36 25 63
30 59 32 99 6 129 -38 44 -104 -4 -110 -79 -2 -34 -38 -138 -64 -190 -7 -14
-23 -26 -35 -28 -19 -3 -22 1 -22 30 0 19 9 59 20 91 11 31 20 62 20 70 0 7
16 37 36 67 19 30 38 67 41 82 3 17 13 28 27 30 24 4 137 -38 148 -55z m269
-62 c53 -19 79 -42 79 -69 -1 -20 -31 -66 -44 -66 -4 0 -22 16 -40 35 -57 59
-107 38 -119 -49 -6 -41 -2 -60 33 -142 33 -78 40 -101 34 -132 -6 -35 -18
-51 -37 -52 -14 0 -39 72 -53 155 -16 86 -17 235 -3 235 5 0 9 11 9 24 0 13 9
35 21 50 24 30 56 33 120 11z m4862 -30 l18 -25 -29 0 c-17 0 -38 10 -52 25
l-23 25 34 0 c24 -1 39 -8 52 -25z m-1797 -127 c57 -44 60 -66 17 -141 -24
-42 -19 -87 9 -87 12 0 64 -23 117 -52 92 -49 99 -51 161 -48 144 8 171 6 186
-14 16 -23 19 -72 3 -81 -6 -4 -8 -13 -5 -21 10 -25 -155 -18 -239 10 -38 12
-118 31 -177 41 -86 15 -112 23 -130 42 -19 20 -20 27 -10 43 29 46 4 81 -68
94 -29 6 -49 0 -117 -35 -91 -47 -113 -44 -113 13 0 40 21 76 72 123 63 59 96
80 174 108 85 32 85 32 120 5z m4859 10 c1 -2 17 -33 34 -70 17 -37 41 -73 53
-79 26 -14 107 -6 148 15 25 12 29 12 34 -1 4 -8 4 -18 1 -22 -2 -5 5 -32 16
-62 12 -30 27 -84 34 -121 8 -37 19 -76 24 -87 19 -34 12 -58 -32 -123 -40
-58 -42 -66 -35 -103 4 -22 20 -63 35 -91 l26 -51 -22 -46 c-36 -75 -76 -122
-153 -183 -40 -32 -84 -70 -98 -86 -37 -43 -130 -63 -216 -48 -27 5 -52 -15
-63 -50 -14 -46 -55 -74 -126 -84 -126 -19 -205 -2 -205 44 0 10 -5 20 -11 22
-5 2 -11 11 -12 20 -2 9 -8 22 -14 30 -7 8 -15 33 -19 56 -8 53 -35 64 -72 30
-19 -17 -41 -25 -72 -27 -25 -2 -52 -7 -61 -12 -9 -4 -46 -7 -82 -6 -91 4
-113 28 -95 107 4 14 15 37 52 105 9 17 16 40 16 52 0 16 10 27 35 37 22 9 37
24 40 39 7 28 281 304 342 345 85 57 143 108 158 139 8 18 19 35 24 38 5 2 12
35 16 73 6 63 9 69 42 92 108 75 239 130 258 108z m-4156 -73 c30 -15 41 -39
41 -92 0 -34 13 -48 93 -95 56 -33 75 -68 86 -156 5 -37 8 -68 7 -69 -1 -1
-21 16 -45 37 -57 52 -114 71 -176 59 -26 -5 -58 -6 -71 -3 -22 6 -24 12 -24
61 0 30 7 71 17 90 14 29 14 42 5 85 -19 79 -16 98 13 98 15 0 39 -7 54 -15z
m5888 -187 c15 -28 18 -60 18 -213 0 -123 4 -187 13 -202 16 -28 16 -145 0
-161 -23 -23 -46 -13 -68 33 -19 40 -21 54 -15 130 7 76 5 90 -15 132 -18 39
-23 65 -23 141 0 148 47 220 90 140z m-7560 -76 c8 -5 2 -23 -20 -60 -18 -28
-36 -52 -40 -52 -4 0 -5 5 -2 10 3 6 -3 11 -14 11 -42 3 -46 4 -49 22 -2 9 4
20 15 24 10 4 33 17 52 30 37 25 41 26 58 15z m161 -114 c17 -17 15 -55 -4
-62 -27 -10 -43 -7 -64 14 -17 17 -18 23 -8 40 14 22 57 27 76 8z m-291 -39
c6 -6 26 -14 44 -18 25 -5 35 -13 40 -35 4 -15 14 -36 21 -45 32 -38 37 -66
18 -108 -27 -60 -42 -60 -97 -2 -78 84 -125 98 -160 50 -18 -24 -31 -29 -82
-35 -46 -5 -69 -3 -95 9 -44 21 -89 69 -84 90 5 31 51 56 112 62 47 5 66 2
106 -17 27 -13 56 -20 66 -16 9 4 14 9 11 13 -3 3 0 18 9 34 11 23 21 29 47
29 18 0 38 -5 44 -11z m7356 -59 c4 -16 4 -37 0 -46 -5 -14 -8 -13 -19 7 -14
26 -18 62 -8 72 11 11 21 -1 27 -33z m-4650 -14 c44 -18 71 -51 101 -119 35
-79 34 -157 -4 -206 l-17 -24 -21 54 c-19 52 -22 55 -98 93 -72 35 -82 37
-109 26 -16 -6 -55 -21 -85 -32 -30 -11 -72 -36 -92 -56 -35 -34 -38 -40 -38
-95 0 -70 -19 -74 -35 -8 -9 38 -16 45 -61 66 -63 29 -153 86 -176 111 -9 11
-23 36 -32 58 -15 36 -15 41 4 82 10 24 26 47 35 50 9 4 46 -7 83 -24 90 -40
177 -50 237 -27 28 11 59 16 84 12 31 -4 49 1 88 24 54 31 89 35 136 15z
m5391 -178 c-7 -11 -7 -11 -24 22 -13 25 -13 25 8 6 12 -10 19 -23 16 -28z
m-4573 -99 c30 -16 22 -60 -13 -72 -37 -12 -138 32 -138 61 0 16 9 19 66 20
36 1 74 -3 85 -9z m-3339 -26 c28 -26 24 -100 -9 -158 -53 -91 -59 -98 -80
-112 -19 -13 -22 -11 -42 20 -11 19 -21 39 -21 45 0 5 -11 32 -24 59 -42 83
-42 88 6 104 24 7 51 24 61 36 22 28 81 31 109 6z m-662 -27 c0 -22 -11 -46
-21 -46 -10 0 -12 43 -2 53 11 12 23 8 23 -7z m3610 -127 c54 -12 60 -22 31
-56 -22 -26 -49 -29 -77 -8 -10 8 -33 15 -51 15 -38 0 -48 12 -31 40 15 23 50
26 128 9z m-562 -56 c48 -31 53 -48 21 -84 -11 -13 -29 -34 -39 -46 -29 -34
-62 -38 -108 -14 -23 12 -54 21 -70 21 -34 0 -52 16 -52 46 0 27 35 54 70 54
14 0 34 6 45 14 42 29 96 32 133 9z"/>
<path d="M8929 6798 c-8 -26 -5 -44 9 -56 9 -7 11 -11 4 -7 -13 7 -29 -21 -18
-32 11 -11 33 29 34 63 1 24 -3 34 -13 34 -8 0 -15 -1 -16 -2z"/>
<path d="M9625 6350 c-3 -5 -1 -10 4 -10 6 0 11 5 11 10 0 6 -2 10 -4 10 -3 0
-8 -4 -11 -10z"/>
<path d="M13347 5654 c-3 -5 -12 -33 -21 -63 -15 -50 -15 -60 0 -120 20 -85
34 -116 47 -99 5 8 10 9 13 3 16 -36 23 -40 40 -23 23 22 11 52 -18 45 -20 -6
-21 -4 -16 102 5 100 4 109 -17 135 -12 16 -25 24 -28 20z"/>
<path d="M14435 4927 c7 -45 32 -73 72 -83 36 -9 38 0 12 52 -17 33 -34 51
-57 60 l-34 14 7 -43z"/>
<path d="M4667 3122 c-9 -10 -22 -33 -28 -51 -11 -30 -9 -35 15 -59 l27 -27
30 35 c35 41 46 76 32 99 -15 23 -56 25 -76 3z"/>
<path d="M6605 2440 c-9 -17 -15 -48 -13 -68 3 -32 7 -37 29 -40 38 -4 71 44
67 95 -3 35 -6 38 -35 41 -27 3 -34 -2 -48 -28z"/>
<path d="M10017 10791 c-86 -18 -75 -49 38 -104 90 -45 118 -44 184 4 57 41
77 33 83 -32 6 -61 48 -110 111 -129 23 -6 78 -25 122 -41 217 -78 282 -99
302 -99 14 0 39 18 65 46 24 25 60 64 80 85 47 51 54 85 33 164 -28 103 -40
109 -203 113 -97 3 -156 -1 -202 -11 -54 -13 -79 -13 -143 -4 -67 10 -85 9
-124 -5 -40 -15 -50 -15 -73 -3 -33 17 -218 28 -273 16z"/>
<path d="M14160 10771 c-39 -11 -40 -55 -1 -75 45 -24 76 -20 89 10 25 53 -18
84 -88 65z"/>
<path d="M14472 10765 c-34 -15 -62 -63 -62 -109 0 -45 84 -92 117 -65 16 14
73 129 73 148 0 28 -84 45 -128 26z"/>
<path d="M13475 10761 c-9 -16 43 -48 98 -62 28 -6 118 -34 200 -61 81 -26
166 -51 188 -53 l41 -5 -46 45 c-45 45 -47 46 -104 43 -59 -3 -62 -2 -225 78
-50 24 -140 33 -152 15z"/>
<path d="M14888 10740 c-16 -17 -28 -35 -26 -42 2 -6 25 -29 50 -50 40 -34 48
-37 71 -29 25 10 27 15 27 70 0 49 -4 62 -19 71 -35 18 -71 11 -103 -20z"/>
<path d="M14117 10532 c10 -7 29 -15 43 -18 14 -3 38 -10 53 -16 39 -15 43 -5
10 26 -23 22 -36 26 -76 24 -41 -3 -45 -5 -30 -16z"/>
<path d="M14732 10534 c-11 -12 -9 -14 8 -14 11 0 20 4 20 9 0 17 -15 19 -28
5z"/>
<path d="M15065 10344 c-10 -19 -30 -44 -44 -54 -35 -24 -94 -20 -126 10 -41
38 -28 14 19 -36 24 -27 54 -48 67 -50 13 -1 47 -9 75 -17 28 -8 62 -13 77
-10 26 5 26 6 12 34 -8 15 -21 56 -28 90 -6 35 -17 64 -22 66 -6 2 -19 -13
-30 -33z"/>
<path d="M3230 10297 c0 -16 42 -57 58 -57 20 0 13 38 -10 54 -27 19 -48 20
-48 3z"/>
<path d="M15338 10224 c-23 -20 -53 -41 -65 -47 -49 -22 -9 -59 77 -72 l45 -7
0 81 c0 45 -3 81 -6 81 -4 0 -27 -16 -51 -36z"/>
<path d="M3772 10114 c-17 -12 -22 -25 -22 -59 0 -34 5 -47 22 -59 49 -35 118
-5 118 49 0 14 -10 39 -22 55 -25 34 -60 39 -96 14z"/>
<path d="M14634 9925 c-12 -30 1 -50 31 -50 23 0 31 5 33 21 2 16 -4 24 -28
32 -25 9 -32 8 -36 -3z"/>
<path d="M14021 9813 c-7 -7 -14 -21 -16 -31 -2 -9 -10 -30 -18 -46 -9 -16
-13 -36 -9 -45 16 -44 46 -81 76 -95 39 -18 86 -21 86 -5 0 7 11 9 33 5 17 -4
47 -9 65 -13 17 -3 32 -9 32 -14 0 -5 7 -9 16 -9 9 0 25 -10 35 -22 11 -12 19
-16 19 -8 0 10 5 9 18 -3 10 -10 28 -17 40 -17 12 0 22 -4 22 -9 0 -5 8 -7 18
-5 9 2 49 5 87 7 55 3 73 1 82 -12 8 -11 12 -12 13 -3 0 13 40 -22 40 -37 0
-4 21 -14 47 -22 49 -13 153 -102 153 -131 0 -8 7 -15 15 -15 8 0 15 4 15 7 0
12 114 9 129 -4 11 -8 15 -8 18 2 6 17 23 15 23 -2 0 -8 5 -18 12 -22 7 -4 8
-3 4 4 -4 7 -2 12 4 12 14 0 60 46 60 60 0 5 7 10 15 10 8 0 15 6 15 13 0 6 3
21 6 33 5 17 -6 26 -68 56 -188 92 -276 129 -358 153 -25 7 -103 34 -175 59
-71 25 -142 46 -158 46 -15 0 -35 4 -45 9 -82 41 -141 62 -198 71 -36 6 -82
16 -103 23 -31 11 -39 11 -50 0z"/>
<path d="M15186 9772 c-4 -3 -6 -16 -6 -28 0 -39 57 -56 88 -27 13 13 17 43 5
43 -5 0 -25 4 -45 9 -20 5 -39 6 -42 3z"/>
<path d="M15712 8318 c-7 -7 -12 -19 -12 -27 0 -25 -47 -115 -74 -140 -29 -28
-50 -82 -41 -110 5 -16 9 -17 40 -7 49 17 81 51 111 115 45 97 54 129 44 156
-10 27 -47 34 -68 13z"/>
<path d="M2191 7382 c-17 -31 -13 -40 5 -14 9 13 14 26 11 29 -3 2 -10 -4 -16
-15z"/>
<path d="M995 7225 c-3 -8 -7 -22 -10 -31 -8 -24 4 -37 21 -23 7 6 32 9 54 7
28 -2 40 0 40 9 0 7 0 16 0 21 0 4 -6 7 -12 7 -7 0 -17 6 -21 13 -11 17 -67
15 -72 -3z"/>
<path d="M70 6515 c-15 -18 -7 -79 12 -99 7 -7 30 -21 51 -31 35 -16 37 -20
37 -62 0 -24 -4 -52 -10 -62 -8 -15 -6 -17 13 -14 13 3 34 23 49 46 15 23 43
58 62 77 25 25 35 44 36 66 0 49 -34 72 -121 84 -101 13 -115 12 -129 -5z"/>
<path d="M485 6171 c-39 -28 -80 -57 -93 -66 -42 -30 -47 -95 -8 -95 8 0 34
-23 58 -50 70 -82 162 -98 211 -37 77 95 79 99 72 157 -9 71 -27 106 -58 109
-4 0 -20 7 -37 16 -46 24 -71 18 -145 -34z"/>
<path d="M61 5158 c0 -13 4 -32 9 -43 8 -18 9 -18 8 5 0 14 3 33 7 43 5 12 3
17 -9 17 -10 0 -16 -8 -15 -22z"/>
<path d="M92 5050 c0 -19 2 -27 5 -17 2 9 2 25 0 35 -3 9 -5 1 -5 -18z"/>
<path d="M17605 4380 c-11 -4 -40 -28 -64 -53 l-44 -46 5 -66 c6 -74 33 -115
75 -115 35 0 39 -39 13 -110 -13 -33 -27 -63 -31 -66 -5 -3 -18 -24 -29 -47
-16 -32 -20 -61 -20 -138 0 -94 1 -97 28 -115 18 -13 47 -19 87 -20 33 -1 66
-2 74 -3 7 -1 34 -22 60 -48 47 -49 70 -63 130 -82 36 -12 51 -8 51 15 0 8 4
14 8 14 20 0 33 72 26 138 -4 37 -7 78 -6 92 3 30 43 74 102 108 37 22 56 27
110 26 78 -1 175 -35 191 -67 16 -31 61 -77 74 -77 7 0 20 9 30 20 15 17 17
31 11 97 -3 43 -16 107 -29 143 -19 55 -34 76 -99 140 -106 105 -164 133 -290
138 -83 4 -109 1 -169 -19 l-71 -23 -45 24 c-33 17 -53 38 -75 77 -38 68 -60
81 -103 63z"/>
<path d="M68 4218 c-8 -7 -21 -35 -28 -61 -15 -57 -1 -140 31 -180 10 -14 19
-31 19 -37 0 -16 48 -72 53 -62 3 4 8 24 12 45 4 21 15 43 24 50 21 15 66 93
75 129 7 29 0 37 -48 53 -16 6 -34 19 -40 30 -24 43 -67 58 -98 33z"/>
<path d="M18173 3579 c-18 -18 -16 -60 3 -88 15 -21 22 -23 68 -17 58 6 76 24
76 73 0 28 -4 33 -24 33 -13 0 -43 3 -67 6 -29 4 -48 1 -56 -7z"/>
<path d="M17587 3455 c-13 -33 -7 -64 19 -94 14 -17 32 -31 39 -31 7 0 18 -7
25 -15 9 -11 16 -13 24 -5 5 5 18 10 28 10 10 0 36 8 58 17 63 28 55 51 -33
92 -87 41 -151 51 -160 26z"/>
<path d="M18190 3252 c0 -37 22 -67 44 -59 22 9 20 49 -4 70 -29 24 -40 21
-40 -11z"/>
<path d="M5060 582 c-73 -24 -132 -63 -167 -109 -39 -51 -93 -100 -123 -111
-14 -5 -68 -26 -120 -47 -60 -24 -109 -37 -132 -36 -42 2 -119 -17 -129 -32
-24 -34 -137 -41 -184 -11 -32 20 -91 27 -127 15 -63 -22 -91 -92 -66 -166 11
-35 19 -42 63 -57 44 -15 100 -17 460 -18 382 0 413 1 445 19 46 24 49 51 11
108 -17 26 -31 52 -31 60 0 22 38 53 66 53 32 0 64 17 64 34 0 8 8 24 18 36
l18 22 37 -35 c28 -26 37 -42 37 -68 0 -36 -28 -119 -40 -119 -12 0 -19 -36
-10 -50 14 -22 102 -50 158 -50 44 0 57 5 79 26 23 23 25 30 19 76 -4 29 -11
59 -17 69 -15 28 -11 55 16 111 57 118 18 200 -122 258 -95 40 -152 45 -223
22z"/>
<path d="M19079 368 c-18 -36 -21 -54 -17 -123 5 -69 3 -81 -11 -83 -9 -1 -54
-4 -101 -6 -108 -5 -102 -5 -96 -14 2 -4 -9 -14 -25 -21 -16 -7 -29 -18 -29
-26 0 -25 31 -37 122 -46 51 -5 120 -11 154 -15 78 -8 100 9 89 70 -3 23 -7
93 -8 157 -2 117 -11 149 -43 149 -7 0 -23 -19 -35 -42z"/>
<path d="M371 170 c-20 -17 -22 -24 -14 -57 8 -33 13 -38 41 -41 19 -2 40 2
48 9 20 16 19 95 -2 103 -27 10 -48 6 -73 -14z"/>
<path d="M10975 150 c-24 -10 -80 -68 -88 -93 -5 -14 1 -22 29 -33 54 -22 376
-16 400 7 26 27 1 56 -79 95 -65 31 -79 34 -157 33 -47 0 -94 -4 -105 -9z"/>
</g>
</svg>
