<?xml version="1.0" encoding="utf-8"?>
<!-- Generator: Adobe Illustrator 24.1.2, SVG Export Plug-In . SVG Version: 6.00 Build 0)  -->
<svg version="1.1" id="Слой_1" xmlns="http://www.w3.org/2000/svg" xmlns:xlink="http://www.w3.org/1999/xlink" x="0px" y="0px"
	 viewBox="0 0 410 410" style="enable-background:new 0 0 410 410;" xml:space="preserve">
<style type="text/css">
	.st0{fill-rule:evenodd;clip-rule:evenodd;}
</style>
<path class="st0" d="M372,8.3c8.9,8.9,8.9,23.2,0,31.9L350.4,62l51.6,51.6c7.7,9.9,5.9,24.1-4,31.7c-8.1,6.3-19.3,6.3-27.5,0.2
	l-51.8-51.8l-28.5,28.5L342,174c9.7,7.9,11.1,22.1,3.2,31.8c-7.9,9.7-22.1,11.1-31.8,3.2c-1.2-1-2.3-2.1-3.3-3.3l-51.8-51.8
	L222,190.4c49.3,50.3,48.5,131.1-1.8,180.5s-131.1,48.5-180.5-1.8S-8.8,238,41.5,188.7c37.9-37.2,94.9-47,143.1-24.6l57.9-57.9
	l97.6-97.8C349-0.3,363.3-0.3,372,8.3z M130.7,197.2c-45.6,0-82.6,37-82.6,82.6s37,82.6,82.6,82.6c45.6,0,82.6-37,82.6-82.6
	C213.3,234.2,176.3,197.2,130.7,197.2z"/>
</svg>
