<?xml version="1.0" encoding="utf-8"?>
<!-- Generator: Adobe Illustrator 24.1.2, SVG Export Plug-In . SVG Version: 6.00 Build 0)  -->
<svg version="1.1" id="Слой_1" xmlns="http://www.w3.org/2000/svg" xmlns:xlink="http://www.w3.org/1999/xlink" x="0px" y="0px"
	 viewBox="0 0 409.6 409.6" style="enable-background:new 0 0 409.6 409.6;" xml:space="preserve">
<path d="M279.4,0c6.4,2.2,13.2,3.5,19,6.7c23.4,12.9,32.4,41.2,21.5,65.4c-0.4,0.8-0.7,1.7-1.4,3.1h69.1V197H217.9V75.7h-26.8V197
	h-170V75.5h69.1c-1.1-2.6-2-4.6-2.8-6.7C76.3,38.2,95.2,6,127.4,0.7c0.6-0.2,1.2-0.4,1.8-0.7h12c0.3,0.2,0.7,0.3,1.1,0.4
	c19.9,2.7,35.9,12.5,49.2,27c4.6,5.1,8.6,10.7,13,16.3c0.9-1.3,1.8-2.5,2.7-3.8c8.4-12.7,19.6-23.2,32.8-30.7
	c8.6-4.9,17.9-7.3,27.4-9.2H279.4z M188.5,74.9c-0.1-0.6-0.2-1.2-0.3-1.9c-5-15.1-14.7-28.3-27.7-37.5c-8.6-6.2-18.2-9.7-29.1-8.4
	c-11.5,1.4-20.6,12.2-20.5,24.2s9.5,23.3,21,23.6c18.6,0.6,37.2,0.3,55.8,0.3C187.9,75.3,188.2,75,188.5,74.9z M219.8,75.2
	c18.8,0,36.9,0.4,55.1-0.1c14.1-0.4,23.9-12.4,22.8-26.3c-1-13.2-12.9-23-26.5-22c-11.3,0.8-20.5,5.9-28.8,13.2
	C231.7,49.3,223.9,61.6,219.8,75.2L219.8,75.2z"/>
<path d="M45,224h145.7v184.6H45V224z"/>
<path d="M218,224.1h145.8v184.5H218V224.1z"/>
</svg>
