<svg id="Слой_1" data-name="Слой 1" xmlns="http://www.w3.org/2000/svg" viewBox="0 0 198 198"><defs><style>.cls-1{fill:#fff;}</style></defs><path class="cls-1" d="M105.79,198H92.66c0-.45.08-.9.08-1.34q0-43.14,0-86.27c0-.55-.08-1.11-.12-1.69H22.05v45.88Q22,176.29,22,198H0V0H198V198H176.44c0-.84,0-1.67,0-2.51V108.71H105.7v87.37C105.7,196.72,105.76,197.36,105.79,198ZM154.43,36.79c.38-.9.62-1.48.87-2.06a23.6,23.6,0,0,0,1.63-14C154.11,5.64,139.31-3,124.22,1.57c-9.92,3-17.37,9.21-23.24,17.55-.57.81-1.11,1.64-1.55,2.3-2.7-3.22-5.06-6.45-7.84-9.27C84.77,5.24,76.64.87,66.74.4a24.43,24.43,0,0,0-25.45,26c.26,3.45,1.39,6.84,2.15,10.41H10.6V95.53H92.84V36.92h12.89V95.53h82.12V36.79H154.43Z"/><path d="M22,198q0-21.7.05-43.42V108.7H92.62c0,.58.12,1.14.12,1.69q0,43.14,0,86.27c0,.44,0,.89-.08,1.34Z"/><path d="M105.79,198c0-.64-.09-1.28-.09-1.92V108.71h70.7v86.78c0,.84,0,1.67,0,2.51Z"/><path d="M154.43,36.79h33.42V95.53H105.73V36.92H92.84V95.53H10.6V36.81H43.44c-.76-3.57-1.89-7-2.15-10.41A24.43,24.43,0,0,1,66.74.4c9.9.47,18,4.84,24.85,11.75,2.78,2.82,5.14,6,7.84,9.27.44-.66,1-1.49,1.55-2.3,5.87-8.34,13.32-14.56,23.24-17.55,15.09-4.57,29.89,4.07,32.71,19.2a23.6,23.6,0,0,1-1.63,14C155.05,35.31,154.81,35.89,154.43,36.79Zm-62.74-.28a36.31,36.31,0,0,0-11-16.93c-4-3.51-8.51-5.91-14-6.27A11.81,11.81,0,0,0,54.08,23.92c-.54,6.66,4.2,12.51,10.82,12.71,8.73.27,17.47.1,26.2.12C91.22,36.75,91.33,36.66,91.69,36.51Zm15,.2c9.09,0,17.88.19,26.66-.07,6.79-.2,11.56-6,11-12.73a11.81,11.81,0,0,0-12.83-10.58c-5.44.4-9.92,2.86-13.9,6.38A36.3,36.3,0,0,0,106.7,36.71Z"/><path class="cls-1" d="M91.69,36.51c-.36.15-.47.24-.59.24-8.73,0-17.47.15-26.2-.12-6.62-.2-11.36-6.05-10.82-12.71A11.81,11.81,0,0,1,66.71,13.31c5.44.36,9.94,2.76,14,6.27A36.31,36.31,0,0,1,91.69,36.51Z"/><path class="cls-1" d="M106.7,36.71a36.3,36.3,0,0,1,10.93-17c4-3.52,8.46-6,13.9-6.38a11.81,11.81,0,0,1,12.83,10.58c.56,6.74-4.21,12.53-11,12.73C124.58,36.9,115.79,36.71,106.7,36.71Z"/><polygon points="92.06 37.03 87.44 16.55 61.02 9.95 49.13 26.13 59.04 37.03 92.06 37.03"/><polygon points="105.28 26.13 128.06 9.95 145.9 15.56 145.9 32.4 139.62 40.66 122.45 40.66 105.28 37.03 105.28 26.13"/></svg>