<svg id="Слой_1" data-name="Слой 1" xmlns="http://www.w3.org/2000/svg" viewBox="0 0 197.62 197.64">
  <path fill="currentColor" d="M0,184.49V13.12A52.19,52.19,0,0,1,3,6.58C5.28,2.87,9.06,1.15,13.12,0H184.49c.1.08.18.21.29.24,8.9,2.54,12.83,7.73,12.83,17V180.5a23.43,23.43,0,0,1-.17,3.65c-1.3,8.24-7.61,13.49-16.2,13.49H15.67a15.72,15.72,0,0,1-10-3.55C2.59,191.59,1.08,188.17,0,184.49ZM142.33,46.91c-.62-.08-.86-.13-1.09-.13H112.68a3.34,3.34,0,0,0-2.2,1.41q-14.53,21.24-29,42.55c-.3.43-.65.82-1.33,1.69V46.9H55.34V150.73H80.27v-2.19c0-7.14.13-14.28-.06-21.41a7.92,7.92,0,0,1,2.47-6.46c2.73-2.67,5.21-5.59,7.93-8.55l1.28,2.23q9.94,17.4,19.85,34.83a2.82,2.82,0,0,0,2.82,1.7c8.62-.08,17.24,0,25.86,0,.54,0,1.08-.06,1.94-.12-11.78-19.46-23.4-38.67-35-57.92Z"/>
</svg>