<?xml version="1.0" encoding="utf-8"?>
<!-- Generator: Adobe Illustrator 24.1.2, SVG Export Plug-In . SVG Version: 6.00 Build 0)  -->
<svg version="1.1" id="Слой_1" xmlns="http://www.w3.org/2000/svg" xmlns:xlink="http://www.w3.org/1999/xlink" x="0px" y="0px"
	 viewBox="0 0 410 410" style="enable-background:new 0 0 410 410;" xml:space="preserve">
<path d="M283.7,0c3.2,0.9,6.4,1.5,9.5,2.6c20.1,6.6,34.1,24.9,35.1,46c0.1,1.6,0.1,3.2,0.1,4.8c0,100.8,0,201.7,0,302.5
	c0,22.3-9.8,38.8-30,48.7c-6.6,3.2-13.9,4.8-21.3,4.6c-47.8,0-95.7,0.1-143.5,0c-29.2-0.1-51.3-22.9-51.4-52.5
	c-0.1-46.8-0.1-93.5,0-140.3c0-54.6,0-109.2,0-163.9c0-25.6,15.8-45.7,40.2-51.4c1.5-0.4,3-0.8,4.5-1.2H283.7z M305,305V68.7H105.8
	V305H305z M228.8,353c0.2-12.6-9.9-23-22.5-23.2c-0.1,0-0.3,0-0.4,0c-12.8-0.2-23.4,10.1-23.5,22.9s10.1,23.4,22.9,23.5
	s23.4-10.1,23.5-22.9C228.7,353.2,228.7,353.1,228.8,353L228.8,353z"/>
</svg>
