<?xml version="1.0" encoding="utf-8"?>
<!-- Generator: Adobe Illustrator 24.1.2, SVG Export Plug-In . SVG Version: 6.00 Build 0)  -->
<svg version="1.1" id="Слой_1" xmlns="http://www.w3.org/2000/svg" xmlns:xlink="http://www.w3.org/1999/xlink" x="0px" y="0px"
	 viewBox="0 0 410 410" style="enable-background:new 0 0 410 410;" xml:space="preserve">
<style type="text/css">
	.st0{fill:#FFFFFF;}
</style>
<g>
	<g>
		<path class="st0" d="M283.7,0c42.1,0,84.2,0,126.3,0c0,136.6,0,273.3,0,410c-136.6,0-273.2,0-410,0C0,273.4,0,136.7,0,0
			c42.3,0,84.6,0,127,0c-1.5,0.4-3,0.8-4.5,1.2C98.1,6.9,82.3,27,82.3,52.5c-0.1,54.6,0,109.2,0,163.9c0,46.8-0.1,93.5,0,140.3
			c0.1,29.7,22.2,52.4,51.4,52.5c47.8,0.2,95.7,0.1,143.5,0c7.4,0,14.6-1.4,21.3-4.6c20.2-9.9,30-26.4,30-48.7
			c0.1-100.9,0-201.7,0-302.6c0-1.6,0-3.2-0.1-4.8c-1.2-21.2-15-39.4-35.1-46C290.1,1.6,286.9,0.8,283.7,0z"/>
		<path d="M283.7,0c3.2,0.8,6.4,1.6,9.5,2.6c20.1,6.6,33.9,24.7,35.1,46c0.1,1.6,0.1,3.2,0.1,4.8c0,100.9,0,201.7,0,302.6
			c0,22.3-9.8,38.8-30,48.7c-6.7,3.3-13.9,4.6-21.3,4.6c-47.8,0-95.7,0.1-143.5,0c-29.2-0.1-51.3-22.9-51.4-52.5
			c-0.1-46.8,0-93.5,0-140.3c0-54.6,0-109.2,0-163.9c0-25.6,15.8-45.6,40.2-51.3c1.5-0.4,3-0.8,4.5-1.2C179.2,0,231.5,0,283.7,0z
			 M305,305c0-79,0-157.6,0-236.3c-66.5,0-132.8,0-199.1,0c0,78.9,0,157.5,0,236.3C172.3,305,238.5,305,305,305z M228.7,353
			c0-12.9-10-23-22.9-23.2c-13-0.2-23.5,10.2-23.5,23.2c0,12.7,10.2,23,23.1,23.3C218.2,376.5,228.7,366,228.7,353z"/>
		<path class="st0" d="M305,305c-66.5,0-132.7,0-199.1,0c0-78.8,0-157.4,0-236.3c66.4,0,132.6,0,199.1,0C305,147.4,305,226,305,305z
			"/>
		<path class="st0" d="M228.7,353c0,13-10.5,23.5-23.3,23.2c-12.9-0.2-23.1-10.5-23.1-23.3c0-12.9,10.5-23.3,23.5-23.2
			C218.8,330,228.7,340.1,228.7,353z"/>
	</g>
</g>
</svg>
