<svg xmlns="http://www.w3.org/2000/svg" viewBox="0 0 50 50">
  <path 
    d="M38,3H12c-4.96,0-9,4.04-9,9v13.39l13.45,6.72c0.49,0.24,0.69,0.84,0.44,1.34C16.72,33.8,16.37,34,16,34c-0.15,0-0.3-0.03-0.45-0.11L3,27.62V38c0,4.96,4.04,9,9,9h26c4.96,0,9-4.04,9-9V12C47,7.04,42.96,3,38,3z 
       M31.5,28c-1.1,0-2.16-0.18-3.17-0.55l-4.75,3.58C23.86,31.82,24,32.65,24,33.5c0,4.14-3.36,7.5-7.5,7.5S9,37.64,9,33.5
       c0-0.22,0.01-0.43,0.02-0.64l5.64,2.82C15.08,35.89,15.54,36,16,36c1.14,0,2.17-0.64,2.68-1.66c0.74-1.48,0.14-3.28-1.34-4.02
       l-5.45-2.73c1.27-1,2.87-1.59,4.61-1.59c0.9,0,1.79,0.16,2.62,0.47l3.45-4.72C22.19,20.71,22,19.62,22,18.5
       c0-5.24,4.26-9.5,9.5-9.5s9.5,4.26,9.5,9.5S36.74,28,31.5,28z"
    fill="currentColor" />
  <circle 
    cx="31.5" cy="18.5" r="4.5"
    fill="none"
    stroke="currentColor"
    stroke-width="2"
    stroke-miterlimit="10" />
</svg>
