<?xml version="1.0" encoding="utf-8"?>
<!-- Generator: Adobe Illustrator 24.1.2, SVG Export Plug-In . SVG Version: 6.00 Build 0)  -->
<svg version="1.1" id="Слой_1" xmlns="http://www.w3.org/2000/svg" xmlns:xlink="http://www.w3.org/1999/xlink" x="0px" y="0px"
	 viewBox="0 0 410 410" style="enable-background:new 0 0 410 410;" xml:space="preserve">
<g>
	<path d="M214.5,408c-6.6,0-13.2,0-19.8,0c-1.2-0.2-2.3-0.6-3.5-0.7c-8.2-1.1-16.5-1.7-24.7-3.3C103.4,391,56.5,355.8,25.4,299.4
		c-2.5-4.6-2.3-8,0.6-11s6.3-3.4,11.3-1c9,4.4,17.9,9,27,13.1c4.7,2.1,7.4,5.2,8.9,10.2c8.1,26.2,32.3,45.1,59.1,46.5
		c37.8,2.1,68.9-24.7,72.5-62.5c0.4-3.9,2-6.6,4.9-9c15.7-12.9,31.6-25.6,47.1-38.7c5.7-4.9,11.8-7.8,19.5-9.1
		c42.5-7.2,69.5-45.7,62.8-88c-6.6-41.7-48.8-70.6-89.9-61.8C212.4,96,188,126,187.7,163.7c0,4.4-1.2,7.8-3.9,11.2
		c-10.6,13.7-21.2,27.4-31.5,41.3c-3,4-6.3,5.7-11.4,5.4c-16.3-1-31.2,3.6-43.9,13.9c-5,4.1-9.2,4.2-14.9,1.6
		c-23.8-10.7-47.7-21.2-71.7-31.5c-3.7-1.6-7-3-8.5-6.9c0-2.4,0-4.8,0-7.1c0.6-4.9,1.2-9.7,1.9-14.5c6.2-42.7,23.9-80,53.5-111.2
		c32.3-34,71.7-54.5,118.1-61.5c6.1-0.9,12.3-1.6,18.4-2.4c7.1,0,14.3,0,21.4,0c1.3,0.3,2.6,0.7,3.9,0.7c29.4,2,57.2,9.8,82.9,24.3
		c58.5,33.2,93.1,83.2,103.6,149.7c1,6.5,1.6,13.1,2.4,19.6c0,5.5,0,11.1,0,16.6c-0.3,1.6-0.6,3.1-0.7,4.7
		c-2.4,37.8-14.2,72.4-35.9,103.3c-33.7,47.5-79.5,75.8-137.1,84.8C227.6,406.6,221,407.2,214.5,408z"/>
	<path d="M263.7,120.6c22.8-0.6,42.1,18.1,42.6,41.2s-18,42.5-41.2,43.1c-23.3,0.5-42.5-18-43-41.6
		C221.5,140.2,240.2,121.2,263.7,120.6z"/>
	<path d="M134.8,331.8c-7.5-0.2-16.2-3.2-23.8-9.2c-4.7-3.7-5.4-8.4-2.4-12.4c3-3.9,7.9-4.2,12.7-0.6c9.2,6.9,19.1,7.5,29,2.1
		c8.9-5,13.1-13.2,12.8-23.4c-0.4-11.8-9-21.3-21.6-23.9c-5.1-1.1-8-4.5-7.6-8.9c0.4-5.1,4.8-8.2,10.2-7.4
		c17,2.5,31.6,16.6,34.8,33.7C183.4,308,163.6,331.9,134.8,331.8z"/>
</g>
</svg>
